<svg width="402" height="177" viewBox="0 0 402 177" fill="none" xmlns="http://www.w3.org/2000/svg">
<rect x="7" y="159" width="181" height="6" rx="3" fill="url(#paint0_linear_26_2)"/>
<rect x="7" y="159" width="181" height="6" rx="3" stroke="black"/>
<path d="M104.562 76.875C104.562 81.1667 103.833 85.6667 102.375 90.375C100.917 95.0417 98.8958 99.5208 96.3125 103.812C93.7708 108.062 90.7292 112.042 87.1875 115.75C83.6458 119.458 79.7917 122.667 75.625 125.375C66.7083 131.167 57.6042 134.062 48.3125 134.062C35.1875 134.062 24.7917 130.25 17.125 122.625C9.41667 115 5.5625 104.646 5.5625 91.5625C5.5625 81.6875 8.29167 72.4167 13.75 63.75C18.9167 55.4583 25.8333 48.8333 34.5 43.875C43.2917 38.8333 52.6458 36.3125 62.5625 36.3125C73.9792 36.3125 83.7917 40.0833 92 47.625C100.375 55.3333 104.562 65.0833 104.562 76.875ZM92.375 86.875C92.375 81.0833 91.3542 75.5625 89.3125 70.3125C87.3125 65.0208 84.4583 60.5 80.75 56.75C73 48.9583 62.6875 45.0625 49.8125 45.0625C33.0208 45.0625 22.875 52.125 19.375 66.25C18.2917 70.7083 17.75 76 17.75 82.125C17.75 88.25 18.6875 94.0625 20.5625 99.5625C22.4792 105.021 25.2708 109.708 28.9375 113.625C36.6042 121.75 47.1875 125.812 60.6875 125.812C71.4792 125.812 79.625 122.062 85.125 114.562C89.9583 107.979 92.375 98.75 92.375 86.875ZM196.188 78.9375C205.438 71.8542 212.479 68.3125 217.312 68.3125C220.562 68.3125 223.125 69.6667 225 72.375C226.625 74.6667 227.438 77.5208 227.438 80.9375V110.812C227.438 114.604 227.667 117.062 228.125 118.188C229.125 120.396 231.25 121.5 234.5 121.5C236.167 121.5 237.75 121.188 239.25 120.562C235.542 123.771 232.979 125.833 231.562 126.75C228.312 128.875 225.458 129.938 223 129.938C220.583 129.938 218.854 129.521 217.812 128.688C216.812 127.812 216.104 126.708 215.688 125.375C215.229 123.917 215 120.917 215 116.375V92.8125C215 88.2292 214.562 84.9583 213.688 83C212.854 81 211.812 79.5 210.562 78.5C209.312 77.5 207.833 77 206.125 77C204.458 77 203.167 77.25 202.25 77.75C201.333 78.25 200.542 78.8958 199.875 79.6875C197.375 82.6458 196.125 87.4375 196.125 94.0625V111.812C196.125 114.896 196.458 117.021 197.125 118.188C198.375 120.396 200.458 121.5 203.375 121.5C205.042 121.5 206.625 121.188 208.125 120.562C204.417 123.771 201.854 125.833 200.438 126.75C197.188 128.875 194.333 129.938 191.875 129.938C189.458 129.938 187.729 129.521 186.688 128.688C185.688 127.812 184.979 126.708 184.562 125.375C184.104 123.917 183.875 120.917 183.875 116.375V92.8125C183.875 88.2292 183.438 84.9583 182.562 83C181.729 81 180.688 79.5 179.438 78.5C178.188 77.5 176.688 77 174.938 77C173.188 77 171.833 77.3333 170.875 78C169.917 78.6667 169.083 79.5625 168.375 80.6875C167.708 81.7708 167.167 83.0208 166.75 84.4375C166.333 85.8125 166 87.2292 165.75 88.6875C165.375 91.1875 165.188 93.7917 165.188 96.5V115.812C165.188 118.479 166 120.292 167.625 121.25C168.208 121.625 168.938 121.812 169.812 121.812C170.688 121.812 171.604 121.604 172.562 121.188C167.771 125.312 164.396 127.854 162.438 128.812C160.479 129.771 158.917 130.25 157.75 130.25C154.583 130.25 153 128.417 153 124.75V88.75C153 87.2917 153.021 85.8333 153.062 84.375C153.104 82.9167 152.958 81.5833 152.625 80.375C151.833 77.75 149.562 76.4375 145.812 76.4375C144.021 76.4375 142.229 76.7708 140.438 77.4375C141.521 77.0625 142.917 76.0833 144.625 74.5C147.958 71.5 150.271 69.75 151.562 69.25C154.229 68.2917 156.458 67.8125 158.25 67.8125C160.083 67.8125 161.458 68.1458 162.375 68.8125C163.333 69.4792 164.021 70.3333 164.438 71.375C164.938 72.6667 165.188 75.1667 165.188 78.875C170.604 74.5833 175.854 71.4375 180.938 69.4375C182.854 68.6875 184.583 68.3125 186.125 68.3125C187.667 68.3125 189.021 68.6042 190.188 69.1875C191.396 69.7708 192.417 70.5625 193.25 71.5625C194.958 73.6042 195.938 76.0625 196.188 78.9375ZM250.75 124.75L250.812 84.5625C250.812 81.7708 250.438 79.8958 249.688 78.9375C248.396 77.2708 246.604 76.4375 244.312 76.4375C242.021 76.4375 239.979 76.7708 238.188 77.4375C239.271 77.0208 240.688 76.0417 242.438 74.5C245.646 71.5417 247.917 69.8125 249.25 69.3125C251.75 68.3125 253.938 67.8125 255.812 67.8125C257.729 67.8125 259.146 68.125 260.062 68.75C261.021 69.375 261.708 70.2083 262.125 71.25C262.667 72.5417 262.938 75 262.938 78.625C270.729 71.75 278.021 68.3125 284.812 68.3125C288.521 68.3125 291.75 69.4792 294.5 71.8125C297.375 74.3125 298.812 77.3542 298.812 80.9375V111.812C298.812 114.896 299.146 117.021 299.812 118.188C301.062 120.396 303.146 121.5 306.062 121.5C307.729 121.5 309.312 121.188 310.812 120.562C307.104 123.771 304.542 125.833 303.125 126.75C299.875 128.875 297.021 129.938 294.562 129.938C292.146 129.938 290.417 129.5 289.375 128.625C288.375 127.75 287.667 126.646 287.25 125.312C286.792 123.854 286.562 120.875 286.562 116.375V93C286.562 85.5417 284.125 80.625 279.25 78.25C277.5 77.4167 275.396 77 272.938 77C266.896 77 263.625 81.4792 263.125 90.4375C263 92.6875 262.938 94.7083 262.938 96.5V115.812C262.938 118.479 263.75 120.292 265.375 121.25C265.958 121.625 266.688 121.812 267.562 121.812C268.438 121.812 269.354 121.604 270.312 121.188C269.438 121.938 268.396 122.833 267.188 123.875C265.979 124.917 264.708 125.917 263.375 126.875C260.083 129.125 257.458 130.25 255.5 130.25C252.333 130.25 250.75 128.417 250.75 124.75ZM333.625 22.9375L334 30.0625V33.3125C334 35.3125 333.75 36.5417 333.25 37C332.75 37.4167 332.208 37.8333 331.625 38.25C329.292 39.9167 325.917 42.1667 321.5 45C321.708 40.8333 321.812 38.6875 321.812 38.5625C321.812 38.3958 321.708 36.0208 321.5 31.4375L333.625 22.9375ZM346.688 121.312C345.438 122.312 344.208 123.333 343 124.375C341.833 125.417 340.604 126.375 339.312 127.25C336.312 129.208 333.438 130.188 330.688 130.188C328.104 130.188 326.292 129.792 325.25 129C323.125 127.417 322.062 124.5 322.062 120.25V90.625C322.062 86.125 321.25 83.2083 319.625 81.875C318.875 81.25 318.062 80.9375 317.188 80.9375C316.312 80.9375 315.562 81 314.938 81.125C314.354 81.2083 313.75 81.3125 313.125 81.4375C312.5 81.5625 311.854 81.6875 311.188 81.8125C313.271 80.1875 315.208 78.7292 317 77.4375C318.833 76.1458 320.396 75.0625 321.688 74.1875C322.979 73.3125 324.771 72.0833 327.062 70.5C329.354 68.875 331.729 67.4167 334.188 66.125V110.25C334.188 114.5 334.458 117.188 335 118.312C336.167 120.604 338.75 121.75 342.75 121.75C343.833 121.75 345.146 121.604 346.688 121.312ZM398.625 117.438C392.917 123.812 385.833 127.792 377.375 129.375C375.417 129.708 373 129.875 370.125 129.875C367.25 129.875 364.542 129.083 362 127.5C359.458 125.875 357.375 123.792 355.75 121.25C352.667 116.333 351.125 110.333 351.125 103.25C351.125 98.5833 352.917 93.4167 356.5 87.75C360 82.1667 364.271 77.5 369.312 73.75C374.729 69.75 379.854 67.75 384.688 67.75C387.188 67.75 389.292 68.6667 391 70.5C392.583 72.2917 393.375 74.3333 393.375 76.625C393.375 78.9167 392.875 81.0417 391.875 83C390.875 84.9167 389.562 86.7917 387.938 88.625C386.354 90.4583 384.521 92.2292 382.438 93.9375C380.396 95.6042 378.292 97.1667 376.125 98.625C373.083 100.708 369.25 103.062 364.625 105.688C365.958 110.729 368.312 114.625 371.688 117.375C375.062 120.083 379.417 121.438 384.75 121.438C389.25 121.438 393.875 120.104 398.625 117.438ZM379.75 92.375C380.875 90.5833 381.438 88.8333 381.438 87.125C381.438 85.4167 381.25 83.9792 380.875 82.8125C380.5 81.6042 379.958 80.5417 379.25 79.625C377.625 77.5417 375.521 76.5 372.938 76.5C366.604 76.5 363.438 82.9583 363.438 95.875C363.438 98.1667 363.625 100.438 364 102.688C371.333 100.646 376.583 97.2083 379.75 92.375Z" fill="url(#paint1_linear_26_2)"/>
<defs>
<linearGradient id="paint0_linear_26_2" x1="7" y1="162" x2="188" y2="162" gradientUnits="userSpaceOnUse">
<stop stop-color="#D4BF79"/>
<stop offset="1" stop-color="#B0912A"/>
</linearGradient>
<linearGradient id="paint1_linear_26_2" x1="201" y1="0" x2="201" y2="177" gradientUnits="userSpaceOnUse">
<stop stop-color="#D4BF79"/>
<stop offset="1" stop-color="#B0912A"/>
</linearGradient>
</defs>
</svg>
