<svg width="453" height="177" viewBox="0 0 453 177" fill="none" xmlns="http://www.w3.org/2000/svg">
<path d="M69.8125 47.5625C64.6042 53.1458 55.2917 62.1875 41.875 74.6875C66.4167 98.8542 81.25 112.75 86.375 116.375C90.3333 119.208 94.1667 120.625 97.875 120.625C99.7917 120.625 102.938 119.646 107.312 117.688C104.979 119.896 102.896 121.604 101.062 122.812C99.2292 124.021 97.6875 124.979 96.4375 125.688C95.1875 126.354 93.8958 126.958 92.5625 127.5C87.4375 129.583 83.0833 129.854 79.5 128.312C76.7917 127.188 74.3333 125.646 72.125 123.688C69.9167 121.688 68.1042 120.062 66.6875 118.812C65.2708 117.562 63.5833 116.062 61.625 114.312C59.6667 112.521 57.625 110.667 55.5 108.75C51.5417 105.042 47.3125 101.062 42.8125 96.8125C38.3542 92.5625 33.7083 88.1458 28.875 83.5625C49 64.2708 61.125 52.2708 65.25 47.5625H54.3125C57.1875 44.9792 59.7917 42.9167 62.125 41.375C64.5 39.8333 65.9375 39.0625 66.4375 39.0625H91.25C90.4583 39.2292 89.0833 40.1875 87.125 41.9375C85.2083 43.6875 83.875 44.875 83.125 45.5C81.3333 46.875 79.9792 47.5625 79.0625 47.5625H69.8125ZM9.875 129C13.625 125.125 15.5 117.875 15.5 107.25V47.5625H3.8125L6.25 45.625C11.5417 41.25 14.7708 39.0625 15.9375 39.0625H44.4375C43.9792 39.1042 42.625 40.1042 40.375 42.0625C38.125 43.9792 36.3958 45.375 35.1875 46.25C34.0208 47.125 33.0625 47.5625 32.3125 47.5625H27.6875V104.75C27.6875 108.708 27.5 111.396 27.125 112.812C26.5417 114.979 25.2292 117.542 23.1875 120.5H43.25C42.6667 120.583 41.375 121.5 39.375 123.25C37.375 125 35.9583 126.188 35.125 126.812C33.25 128.271 31.8958 129 31.0625 129H9.875ZM159.5 75C161.625 77.4167 163.271 80.1875 164.438 83.3125C165.646 86.3958 166.25 89.5 166.25 92.625C166.25 95.75 165.792 98.8125 164.875 101.812C163.958 104.771 162.667 107.625 161 110.375C159.375 113.125 157.438 115.708 155.188 118.125C152.979 120.5 150.542 122.583 147.875 124.375C142.208 128.167 136.479 130.062 130.688 130.062C123.896 130.062 118.125 127.417 113.375 122.125C108.75 117.042 106.438 111.083 106.438 104.25C106.438 98.4167 108.208 92.5625 111.75 86.6875C117.042 77.7708 124.25 71.75 133.375 68.625C136.292 67.5833 139.375 67.0625 142.625 67.0625C145.875 67.0625 148.958 67.7917 151.875 69.25C154.833 70.6667 157.375 72.5833 159.5 75ZM129.938 75.4375C125.771 75.4375 122.729 77.4583 120.812 81.5C119.312 84.6667 118.562 88.25 118.562 92.25C118.562 96.25 119.083 99.9792 120.125 103.438C121.208 106.854 122.792 109.917 124.875 112.625C129.5 118.708 135.458 121.75 142.75 121.75C147 121.75 150.083 119.625 152 115.375C153.375 112.208 154.062 108.562 154.062 104.438C154.062 96.3958 151.812 89.5625 147.312 83.9375C142.854 78.2708 137.062 75.4375 129.938 75.4375ZM182.625 124.75L182.688 84.5625C182.688 81.7708 182.312 79.8958 181.562 78.9375C180.271 77.2708 178.479 76.4375 176.188 76.4375C173.896 76.4375 171.854 76.7708 170.062 77.4375C171.146 77.0208 172.562 76.0417 174.312 74.5C177.521 71.5417 179.792 69.8125 181.125 69.3125C183.625 68.3125 185.812 67.8125 187.688 67.8125C189.604 67.8125 191.021 68.125 191.938 68.75C192.896 69.375 193.583 70.2083 194 71.25C194.542 72.5417 194.812 75 194.812 78.625C202.604 71.75 209.896 68.3125 216.688 68.3125C220.396 68.3125 223.625 69.4792 226.375 71.8125C229.25 74.3125 230.688 77.3542 230.688 80.9375V111.812C230.688 114.896 231.021 117.021 231.688 118.188C232.938 120.396 235.021 121.5 237.938 121.5C239.604 121.5 241.188 121.188 242.688 120.562C238.979 123.771 236.417 125.833 235 126.75C231.75 128.875 228.896 129.938 226.438 129.938C224.021 129.938 222.292 129.5 221.25 128.625C220.25 127.75 219.542 126.646 219.125 125.312C218.667 123.854 218.438 120.875 218.438 116.375V93C218.438 85.5417 216 80.625 211.125 78.25C209.375 77.4167 207.271 77 204.812 77C198.771 77 195.5 81.4792 195 90.4375C194.875 92.6875 194.812 94.7083 194.812 96.5V115.812C194.812 118.479 195.625 120.292 197.25 121.25C197.833 121.625 198.562 121.812 199.438 121.812C200.312 121.812 201.229 121.604 202.188 121.188C201.312 121.938 200.271 122.833 199.062 123.875C197.854 124.917 196.583 125.917 195.25 126.875C191.958 129.125 189.333 130.25 187.375 130.25C184.208 130.25 182.625 128.417 182.625 124.75ZM245.188 74.8125L253.312 68.4375V59.5625C255.562 57.9792 257.167 56.7708 258.125 55.9375C259.083 55.1042 259.896 54.5 260.562 54.125C261.229 53.75 261.917 53.3542 262.625 52.9375C264.417 51.8958 265.375 51.2708 265.5 51.0625V66.3125H285.5C284.958 66.3542 283.583 67.3542 281.375 69.3125C277.167 72.9792 274.5 74.8125 273.375 74.8125H265.5V108.312C265.5 115.979 267.708 120.417 272.125 121.625C273.458 121.958 274.708 122.125 275.875 122.125C277.792 122.125 279.417 121.854 280.75 121.312C282.083 120.729 283.188 120.208 284.062 119.75C281.521 123.625 277.958 126.583 273.375 128.625C271 129.667 268.438 130.188 265.688 130.188C262.979 130.188 260.875 129.708 259.375 128.75C257.875 127.792 256.667 126.542 255.75 125C254.125 122.167 253.312 118.417 253.312 113.75V74.8125H245.188ZM331.938 110.5L331.812 114.875C331.812 118.125 332.729 120.188 334.562 121.062C335.271 121.396 336.083 121.562 337 121.562C338.458 121.562 339.958 121.229 341.5 120.562C339.917 121.229 338.542 122.104 337.375 123.188C336.208 124.271 335.021 125.333 333.812 126.375C330.812 128.875 327.792 130.125 324.75 130.125C321.708 130.125 320.083 128.375 319.875 124.875C319.792 123.958 319.75 123.042 319.75 122.125C312.25 127.333 305.375 129.938 299.125 129.938C293.833 129.938 290.167 128.333 288.125 125.125C287.375 123.958 287 122.354 287 120.312C287 118.271 287.625 116.229 288.875 114.188C290.125 112.104 291.708 110.208 293.625 108.5C297.042 105.333 301.167 102.729 306 100.688C309.583 99.1458 314.188 98.2708 319.812 98.0625V95.3125C319.812 88.6875 319.208 84.2083 318 81.875C316.792 79.5417 315.229 77.8333 313.312 76.75C311.396 75.625 309.146 75.0625 306.562 75.0625C302.188 75.0625 298.333 75.9167 295 77.625C299.583 73.8333 302.938 71.3333 305.062 70.125C309.438 67.6667 313.396 66.4375 316.938 66.4375C320.521 66.4375 323.208 66.9583 325 68C326.792 69.0417 328.208 70.4167 329.25 72.125C331.042 75.125 331.938 79.4375 331.938 85.0625V110.5ZM302.562 119.5C303.562 120.208 304.729 120.729 306.062 121.062C307.396 121.396 309.375 121.562 312 121.562C314.625 121.562 317.229 120.938 319.812 119.688V106.562H309.688C306.062 106.562 302.896 106.812 300.188 107.312C299.646 109.104 299.375 110.812 299.375 112.438C299.375 114.062 299.646 115.458 300.188 116.625C300.771 117.792 301.562 118.75 302.562 119.5ZM352.688 45.4375C352.688 39.1875 350.854 36.0625 347.188 36.0625C346.104 36.0625 344.312 36.375 341.812 37C343.521 35.7083 345.312 34.3542 347.188 32.9375C349.104 31.4792 351.042 30.0417 353 28.625C357.25 25.6667 361.208 23.2292 364.875 21.3125L364.812 78.6875C369.479 74.5208 374.667 71.4583 380.375 69.5C382.292 68.8333 383.979 68.5 385.438 68.5C386.896 68.5 388.188 68.75 389.312 69.25C390.479 69.75 391.479 70.4167 392.312 71.25C394.104 73.125 395 75.2292 395 77.5625C395 79.8958 394.417 82.0208 393.25 83.9375C392.083 85.8125 390.646 87.5833 388.938 89.25C386.521 91.6667 382.958 94.3958 378.25 97.4375C378.833 98.0625 379.75 99.0833 381 100.5C382.292 101.917 383.729 103.5 385.312 105.25C386.938 107 388.646 108.812 390.438 110.688C392.271 112.562 394 114.271 395.625 115.812C399.375 119.354 401.833 121.125 403 121.125C405.917 121.125 408.792 120.312 411.625 118.688C408.042 123.604 403.646 127.062 398.438 129.062C396.688 129.729 395.146 130.062 393.812 130.062C392.521 130.062 391.479 129.917 390.688 129.625C389.938 129.333 389.208 128.958 388.5 128.5C387.125 127.583 385.271 125.958 382.938 123.625C378.062 118.708 372.021 112.354 364.812 104.562V111C364.812 111.958 364.792 113.062 364.75 114.312C364.75 115.521 364.875 116.688 365.125 117.812C365.708 120.479 367.167 121.812 369.5 121.812C370.375 121.812 371.292 121.604 372.25 121.188C371.375 121.938 370.354 122.833 369.188 123.875C368.062 124.917 366.854 125.917 365.562 126.875C362.479 129.167 359.938 130.312 357.938 130.312C354.438 130.312 352.688 127.312 352.688 121.312V45.4375ZM373.625 77C367.75 77 364.812 84.5208 364.812 99.5625V102.812C372.438 99.7708 377.833 95.9792 381 91.4375C382.25 89.6458 382.875 87.9167 382.875 86.25C382.875 84.5417 382.625 83.1667 382.125 82.125C381.625 81.0417 380.958 80.125 380.125 79.375C378.292 77.7917 376.125 77 373.625 77ZM412.688 74.8125L420.812 68.4375V59.5625C423.062 57.9792 424.667 56.7708 425.625 55.9375C426.583 55.1042 427.396 54.5 428.062 54.125C428.729 53.75 429.417 53.3542 430.125 52.9375C431.917 51.8958 432.875 51.2708 433 51.0625V66.3125H453C452.458 66.3542 451.083 67.3542 448.875 69.3125C444.667 72.9792 442 74.8125 440.875 74.8125H433V108.312C433 115.979 435.208 120.417 439.625 121.625C440.958 121.958 442.208 122.125 443.375 122.125C445.292 122.125 446.917 121.854 448.25 121.312C449.583 120.729 450.688 120.208 451.562 119.75C449.021 123.625 445.458 126.583 440.875 128.625C438.5 129.667 435.938 130.188 433.188 130.188C430.479 130.188 428.375 129.708 426.875 128.75C425.375 127.792 424.167 126.542 423.25 125C421.625 122.167 420.812 118.417 420.812 113.75V74.8125H412.688Z" fill="url(#paint0_linear_34_2)"/>
<rect x="158" y="153" width="294" height="6" rx="3" fill="url(#paint1_linear_34_2)"/>
<rect x="158" y="153" width="294" height="6" rx="3" stroke="black"/>
<defs>
<linearGradient id="paint0_linear_34_2" x1="226.5" y1="0" x2="226.5" y2="177" gradientUnits="userSpaceOnUse">
<stop stop-color="#D4BF79"/>
<stop offset="1" stop-color="#B0912A"/>
</linearGradient>
<linearGradient id="paint1_linear_34_2" x1="158" y1="156" x2="452" y2="156" gradientUnits="userSpaceOnUse">
<stop stop-color="#D4BF79"/>
<stop offset="1" stop-color="#B0912A"/>
</linearGradient>
</defs>
</svg>
