<svg width="434" height="409" viewBox="0 0 434 409" fill="none" xmlns="http://www.w3.org/2000/svg">
<g clip-path="url(#clip0_33_230)">
<path d="M86.5949 237.976L86.8032 120.102C86.8137 120.069 86.8341 120.042 86.8615 120.022C86.8888 120.002 86.9217 119.991 86.9554 119.991C86.9892 119.991 87.0221 120.002 87.0494 120.022C87.0767 120.042 87.0971 120.069 87.1077 120.102L144.074 241.741" stroke="url(#paint0_linear_33_230)" stroke-width="6.40969" stroke-miterlimit="10"/>
<path d="M29.5166 241.661L86.7872 120.101" stroke="url(#paint1_linear_33_230)" stroke-width="6.40969" stroke-miterlimit="10"/>
<path d="M349.777 239.642L349.985 121.752" stroke="url(#paint2_linear_33_230)" stroke-width="6.40969" stroke-miterlimit="10"/>
<path d="M293.516 241.597L350.802 120.037" stroke="url(#paint3_linear_33_230)" stroke-width="6.40969" stroke-miterlimit="10"/>
<path d="M351.539 125.598L408.506 247.222" stroke="url(#paint4_linear_33_230)" stroke-width="6.40969" stroke-miterlimit="10"/>
<path d="M63.8886 101.113C63.8886 101.113 70.8751 118.435 90.2805 119.332C118.339 120.614 142.439 93.966 166.988 85.9058C183.912 80.415 201.565 77.4981 219.356 77.2527" stroke="url(#paint5_linear_33_230)" stroke-width="9.61453" stroke-miterlimit="10"/>
<path d="M373.733 101.113C373.733 101.113 366.714 118.435 347.341 119.332C319.251 120.614 295.214 93.966 270.665 85.9058C253.741 80.415 236.089 77.4981 218.298 77.2527" stroke="url(#paint6_linear_33_230)" stroke-width="9.61453" stroke-miterlimit="10"/>
<path d="M227.239 70.0579H209.34V368.493H227.239V70.0579Z" fill="url(#paint7_linear_33_230)"/>
<path d="M225.108 59.6421V49.5148L218.298 44.4512L211.488 49.5148V59.6421L218.298 64.7058L225.108 59.6421Z" fill="url(#paint8_linear_33_230)" stroke="url(#paint9_linear_33_230)" stroke-width="4.80727" stroke-miterlimit="10"/>
<path d="M230.781 77.2528C230.764 80.5508 229.441 83.7078 227.101 86.0324C224.761 88.357 221.596 89.6598 218.298 89.6555C201.745 88.9985 201.745 65.3628 218.298 64.7058C219.943 64.7058 221.571 65.0308 223.09 65.6621C224.608 66.2934 225.987 67.2187 227.147 68.3846C228.307 69.5505 229.226 70.9342 229.849 72.4561C230.473 73.978 230.789 75.6081 230.781 77.2528Z" fill="url(#paint10_linear_33_230)" stroke="url(#paint11_linear_33_230)" stroke-width="14.4218" stroke-miterlimit="10"/>
<path d="M238.553 368.477H198.043V248.824C198.043 243.992 199.963 239.358 203.38 235.941C206.797 232.524 211.431 230.605 216.263 230.605H220.333C225.165 230.605 229.799 232.524 233.216 235.941C236.633 239.358 238.553 243.992 238.553 248.824V368.477Z" fill="url(#paint12_linear_33_230)"/>
<path d="M274.879 340.659H161.716C157.733 340.663 153.914 342.249 151.098 345.067C148.283 347.885 146.702 351.706 146.702 355.69V368.509H289.894V355.69C289.894 351.706 288.313 347.885 285.497 345.067C282.682 342.249 278.863 340.663 274.879 340.659Z" fill="url(#paint13_linear_33_230)"/>
<path d="M259.961 340.659H176.635C176.635 332.859 179.729 325.377 185.239 319.855C190.748 314.334 198.223 311.223 206.023 311.206H230.573C238.373 311.223 245.848 314.334 251.357 319.855C256.867 325.377 259.961 332.859 259.961 340.659Z" fill="url(#paint14_linear_33_230)"/>
<path d="M110.936 281.754H62.2541C50.6434 281.754 39.5083 277.142 31.2983 268.932C23.0883 260.722 18.4759 249.586 18.4759 237.976H154.682C154.682 249.581 150.074 260.711 141.871 268.92C133.668 277.129 122.541 281.745 110.936 281.754Z" fill="url(#paint15_linear_33_230)"/>
<path d="M374.214 281.754H325.516C313.908 281.75 302.777 277.135 294.571 268.926C286.364 260.716 281.754 249.584 281.754 237.976H417.96C417.96 249.581 413.352 260.711 405.149 268.92C396.946 277.129 385.819 281.745 374.214 281.754Z" fill="url(#paint16_linear_33_230)"/>
<path d="M138.674 40.8938L141.286 33.6188L144.266 41.5828L153.224 43.7942L143.625 47.2233L140.597 55.2675L137.392 46.8868L130.005 43.1532L138.674 40.8938Z" fill="url(#paint17_linear_33_230)" stroke="url(#paint18_linear_33_230)" stroke-width="3.89389" stroke-miterlimit="10"/>
<path d="M335.018 33.6189L335.884 25.6869L341.124 32.7536L351.187 32.4651L341.909 38.5383L340.787 47.3677L335.227 39.9324L326.429 38.2659L335.018 33.6189Z" fill="url(#paint19_linear_33_230)" stroke="url(#paint20_linear_33_230)" stroke-width="4.11822" stroke-miterlimit="10"/>
<path d="M14.6782 140.036L15.5595 132.088L20.7834 139.154L30.8466 138.882L21.5846 144.939L20.4629 153.769L14.8865 146.333L6.08921 144.667L14.6782 140.036Z" fill="url(#paint21_linear_33_230)" stroke="url(#paint22_linear_33_230)" stroke-width="4.11822" stroke-miterlimit="10"/>
<path d="M165.418 145.868L166.187 139.619L170.386 145.147L178.558 144.843L170.978 149.682L170.001 156.621L165.546 150.82L158.415 149.586L165.418 145.868Z" fill="url(#paint23_linear_33_230)" stroke="url(#paint24_linear_33_230)" stroke-width="3.28497" stroke-miterlimit="10"/>
<path d="M56.8219 326.926L57.7032 318.978L62.9271 326.061L72.9903 325.773L63.7283 331.846L62.5906 340.675L57.0302 333.24L48.2329 331.573L56.8219 326.926Z" fill="url(#paint25_linear_33_230)" stroke="url(#paint26_linear_33_230)" stroke-width="4.11822" stroke-miterlimit="10"/>
<path d="M378.572 314.587L384.806 309.588L383.508 318.289L390.831 325.195L379.982 322.936L372.948 328.384L374.262 319.186L369.214 311.799L378.572 314.587Z" fill="url(#paint27_linear_33_230)" stroke="url(#paint28_linear_33_230)" stroke-width="4.11822" stroke-miterlimit="10"/>
<path d="M334.377 385.431L335.275 375.8L341.46 384.453L353.142 384.261L342.47 391.488L341.284 402.192L334.714 393.074L324.474 390.927L334.377 385.431Z" fill="url(#paint29_linear_33_230)" stroke="url(#paint30_linear_33_230)" stroke-width="4.88739" stroke-miterlimit="10"/>
<path d="M414.899 163.062L415.62 156.621L419.883 162.341L428.087 162.085L420.524 167.02L419.578 174.167L415.059 168.158L407.88 166.828L414.899 163.062Z" fill="url(#paint31_linear_33_230)" stroke="url(#paint32_linear_33_230)" stroke-width="3.34906" stroke-miterlimit="10"/>
<path d="M61.549 8.49297L62.0458 3.49341L65.2987 7.98019L71.484 7.83597L65.8115 11.6337L65.1545 17.1941L61.6932 12.483L56.2771 11.3933L61.549 8.49297Z" fill="url(#paint33_linear_33_230)" stroke="url(#paint34_linear_33_230)" stroke-width="2.56388" stroke-miterlimit="10"/>
<path d="M349.969 131.447C356.633 131.447 362.035 126.044 362.035 119.38C362.035 112.716 356.633 107.314 349.969 107.314C343.305 107.314 337.903 112.716 337.903 119.38C337.903 126.044 343.305 131.447 349.969 131.447Z" fill="url(#paint35_linear_33_230)"/>
<path d="M86.9955 130.982C93.6595 130.982 99.0617 125.58 99.0617 118.916C99.0617 112.252 93.6595 106.85 86.9955 106.85C80.3315 106.85 74.9293 112.252 74.9293 118.916C74.9293 125.58 80.3315 130.982 86.9955 130.982Z" fill="url(#paint36_linear_33_230)"/>
<path d="M61.1484 110.343C67.8124 110.343 73.2147 104.941 73.2147 98.2767C73.2147 91.6127 67.8124 86.2104 61.1484 86.2104C54.4844 86.2104 49.0822 91.6127 49.0822 98.2767C49.0822 104.941 54.4844 110.343 61.1484 110.343Z" fill="url(#paint37_linear_33_230)"/>
<path d="M375.496 110.343C382.16 110.343 387.562 104.941 387.562 98.2767C387.562 91.6127 382.16 86.2104 375.496 86.2104C368.832 86.2104 363.429 91.6127 363.429 98.2767C363.429 104.941 368.832 110.343 375.496 110.343Z" fill="url(#paint38_linear_33_230)"/>
</g>
<defs>
<linearGradient id="paint0_linear_33_230" x1="115.334" y1="119.991" x2="115.334" y2="241.741" gradientUnits="userSpaceOnUse">
<stop stop-color="#D4BF79"/>
<stop offset="1" stop-color="#B0912A"/>
</linearGradient>
<linearGradient id="paint1_linear_33_230" x1="58.1519" y1="120.101" x2="58.1519" y2="241.661" gradientUnits="userSpaceOnUse">
<stop stop-color="#D4BF79"/>
<stop offset="1" stop-color="#B0912A"/>
</linearGradient>
<linearGradient id="paint2_linear_33_230" x1="349.881" y1="121.752" x2="349.881" y2="239.642" gradientUnits="userSpaceOnUse">
<stop stop-color="#D4BF79"/>
<stop offset="1" stop-color="#B0912A"/>
</linearGradient>
<linearGradient id="paint3_linear_33_230" x1="322.159" y1="120.037" x2="322.159" y2="241.597" gradientUnits="userSpaceOnUse">
<stop stop-color="#D4BF79"/>
<stop offset="1" stop-color="#B0912A"/>
</linearGradient>
<linearGradient id="paint4_linear_33_230" x1="380.022" y1="125.598" x2="380.022" y2="247.222" gradientUnits="userSpaceOnUse">
<stop stop-color="#D4BF79"/>
<stop offset="1" stop-color="#B0912A"/>
</linearGradient>
<linearGradient id="paint5_linear_33_230" x1="141.622" y1="77.2527" x2="141.622" y2="119.377" gradientUnits="userSpaceOnUse">
<stop stop-color="#D4BF79"/>
<stop offset="1" stop-color="#B0912A"/>
</linearGradient>
<linearGradient id="paint6_linear_33_230" x1="296.015" y1="77.2527" x2="296.015" y2="119.377" gradientUnits="userSpaceOnUse">
<stop stop-color="#D4BF79"/>
<stop offset="1" stop-color="#B0912A"/>
</linearGradient>
<linearGradient id="paint7_linear_33_230" x1="218.29" y1="70.0579" x2="218.29" y2="368.493" gradientUnits="userSpaceOnUse">
<stop stop-color="#D4BF79"/>
<stop offset="1" stop-color="#B0912A"/>
</linearGradient>
<linearGradient id="paint8_linear_33_230" x1="218.298" y1="44.4512" x2="218.298" y2="64.7058" gradientUnits="userSpaceOnUse">
<stop stop-color="#D4BF79"/>
<stop offset="1" stop-color="#B0912A"/>
</linearGradient>
<linearGradient id="paint9_linear_33_230" x1="218.298" y1="44.4512" x2="218.298" y2="64.7058" gradientUnits="userSpaceOnUse">
<stop stop-color="#D4BF79"/>
<stop offset="1" stop-color="#B0912A"/>
</linearGradient>
<linearGradient id="paint10_linear_33_230" x1="218.332" y1="64.7058" x2="218.332" y2="89.6555" gradientUnits="userSpaceOnUse">
<stop stop-color="#D4BF79"/>
<stop offset="1" stop-color="#B0912A"/>
</linearGradient>
<linearGradient id="paint11_linear_33_230" x1="218.332" y1="64.7058" x2="218.332" y2="89.6555" gradientUnits="userSpaceOnUse">
<stop stop-color="#D4BF79"/>
<stop offset="1" stop-color="#B0912A"/>
</linearGradient>
<linearGradient id="paint12_linear_33_230" x1="218.298" y1="230.605" x2="218.298" y2="368.477" gradientUnits="userSpaceOnUse">
<stop stop-color="#D4BF79"/>
<stop offset="1" stop-color="#B0912A"/>
</linearGradient>
<linearGradient id="paint13_linear_33_230" x1="218.298" y1="340.659" x2="218.298" y2="368.509" gradientUnits="userSpaceOnUse">
<stop stop-color="#D4BF79"/>
<stop offset="1" stop-color="#B0912A"/>
</linearGradient>
<linearGradient id="paint14_linear_33_230" x1="218.298" y1="311.206" x2="218.298" y2="340.659" gradientUnits="userSpaceOnUse">
<stop stop-color="#D4BF79"/>
<stop offset="1" stop-color="#B0912A"/>
</linearGradient>
<linearGradient id="paint15_linear_33_230" x1="86.5789" y1="237.976" x2="86.5789" y2="281.754" gradientUnits="userSpaceOnUse">
<stop stop-color="#D4BF79"/>
<stop offset="1" stop-color="#B0912A"/>
</linearGradient>
<linearGradient id="paint16_linear_33_230" x1="349.857" y1="237.976" x2="349.857" y2="281.754" gradientUnits="userSpaceOnUse">
<stop stop-color="#D4BF79"/>
<stop offset="1" stop-color="#B0912A"/>
</linearGradient>
<linearGradient id="paint17_linear_33_230" x1="141.614" y1="33.6188" x2="141.614" y2="55.2675" gradientUnits="userSpaceOnUse">
<stop stop-color="#D4BF79"/>
<stop offset="1" stop-color="#B0912A"/>
</linearGradient>
<linearGradient id="paint18_linear_33_230" x1="141.614" y1="33.6188" x2="141.614" y2="55.2675" gradientUnits="userSpaceOnUse">
<stop stop-color="#D4BF79"/>
<stop offset="1" stop-color="#B0912A"/>
</linearGradient>
<linearGradient id="paint19_linear_33_230" x1="338.808" y1="25.6869" x2="338.808" y2="47.3677" gradientUnits="userSpaceOnUse">
<stop stop-color="#D4BF79"/>
<stop offset="1" stop-color="#B0912A"/>
</linearGradient>
<linearGradient id="paint20_linear_33_230" x1="338.808" y1="25.6869" x2="338.808" y2="47.3677" gradientUnits="userSpaceOnUse">
<stop stop-color="#D4BF79"/>
<stop offset="1" stop-color="#B0912A"/>
</linearGradient>
<linearGradient id="paint21_linear_33_230" x1="18.4679" y1="132.088" x2="18.4679" y2="153.769" gradientUnits="userSpaceOnUse">
<stop stop-color="#D4BF79"/>
<stop offset="1" stop-color="#B0912A"/>
</linearGradient>
<linearGradient id="paint22_linear_33_230" x1="18.4679" y1="132.088" x2="18.4679" y2="153.769" gradientUnits="userSpaceOnUse">
<stop stop-color="#D4BF79"/>
<stop offset="1" stop-color="#B0912A"/>
</linearGradient>
<linearGradient id="paint23_linear_33_230" x1="168.487" y1="139.619" x2="168.487" y2="156.621" gradientUnits="userSpaceOnUse">
<stop stop-color="#D4BF79"/>
<stop offset="1" stop-color="#B0912A"/>
</linearGradient>
<linearGradient id="paint24_linear_33_230" x1="168.487" y1="139.619" x2="168.487" y2="156.621" gradientUnits="userSpaceOnUse">
<stop stop-color="#D4BF79"/>
<stop offset="1" stop-color="#B0912A"/>
</linearGradient>
<linearGradient id="paint25_linear_33_230" x1="60.6116" y1="318.978" x2="60.6116" y2="340.675" gradientUnits="userSpaceOnUse">
<stop stop-color="#D4BF79"/>
<stop offset="1" stop-color="#B0912A"/>
</linearGradient>
<linearGradient id="paint26_linear_33_230" x1="60.6116" y1="318.978" x2="60.6116" y2="340.675" gradientUnits="userSpaceOnUse">
<stop stop-color="#D4BF79"/>
<stop offset="1" stop-color="#B0912A"/>
</linearGradient>
<linearGradient id="paint27_linear_33_230" x1="380.022" y1="309.588" x2="380.022" y2="328.384" gradientUnits="userSpaceOnUse">
<stop stop-color="#D4BF79"/>
<stop offset="1" stop-color="#B0912A"/>
</linearGradient>
<linearGradient id="paint28_linear_33_230" x1="380.022" y1="309.588" x2="380.022" y2="328.384" gradientUnits="userSpaceOnUse">
<stop stop-color="#D4BF79"/>
<stop offset="1" stop-color="#B0912A"/>
</linearGradient>
<linearGradient id="paint29_linear_33_230" x1="338.808" y1="375.8" x2="338.808" y2="402.192" gradientUnits="userSpaceOnUse">
<stop stop-color="#D4BF79"/>
<stop offset="1" stop-color="#B0912A"/>
</linearGradient>
<linearGradient id="paint30_linear_33_230" x1="338.808" y1="375.8" x2="338.808" y2="402.192" gradientUnits="userSpaceOnUse">
<stop stop-color="#D4BF79"/>
<stop offset="1" stop-color="#B0912A"/>
</linearGradient>
<linearGradient id="paint31_linear_33_230" x1="417.984" y1="156.621" x2="417.984" y2="174.167" gradientUnits="userSpaceOnUse">
<stop stop-color="#D4BF79"/>
<stop offset="1" stop-color="#B0912A"/>
</linearGradient>
<linearGradient id="paint32_linear_33_230" x1="417.984" y1="156.621" x2="417.984" y2="174.167" gradientUnits="userSpaceOnUse">
<stop stop-color="#D4BF79"/>
<stop offset="1" stop-color="#B0912A"/>
</linearGradient>
<linearGradient id="paint33_linear_33_230" x1="63.8806" y1="3.49341" x2="63.8806" y2="17.1941" gradientUnits="userSpaceOnUse">
<stop stop-color="#D4BF79"/>
<stop offset="1" stop-color="#B0912A"/>
</linearGradient>
<linearGradient id="paint34_linear_33_230" x1="63.8806" y1="3.49341" x2="63.8806" y2="17.1941" gradientUnits="userSpaceOnUse">
<stop stop-color="#D4BF79"/>
<stop offset="1" stop-color="#B0912A"/>
</linearGradient>
<linearGradient id="paint35_linear_33_230" x1="349.969" y1="107.314" x2="349.969" y2="131.447" gradientUnits="userSpaceOnUse">
<stop stop-color="#D4BF79"/>
<stop offset="1" stop-color="#B0912A"/>
</linearGradient>
<linearGradient id="paint36_linear_33_230" x1="86.9955" y1="106.85" x2="86.9955" y2="130.982" gradientUnits="userSpaceOnUse">
<stop stop-color="#D4BF79"/>
<stop offset="1" stop-color="#B0912A"/>
</linearGradient>
<linearGradient id="paint37_linear_33_230" x1="61.1484" y1="86.2104" x2="61.1484" y2="110.343" gradientUnits="userSpaceOnUse">
<stop stop-color="#D4BF79"/>
<stop offset="1" stop-color="#B0912A"/>
</linearGradient>
<linearGradient id="paint38_linear_33_230" x1="375.496" y1="86.2104" x2="375.496" y2="110.343" gradientUnits="userSpaceOnUse">
<stop stop-color="#D4BF79"/>
<stop offset="1" stop-color="#B0912A"/>
</linearGradient>
<clipPath id="clip0_33_230">
<rect width="434" height="408.762" fill="white"/>
</clipPath>
</defs>
</svg>
