<svg width="1440" height="705" viewBox="0 0 1440 705" fill="none" xmlns="http://www.w3.org/2000/svg">
<path opacity="0.111111" d="M-5 231.161C-5 231.161 284.5 44.7846 752 61.6611C1219.5 78.5377 1440 231.161 1440 231.161" stroke="#D4BF79" stroke-opacity="0.55" stroke-width="2"/>
<path opacity="0.222222" d="M-5 291.742C-5 291.742 284.5 105.365 752 122.242C1219.5 139.118 1440 291.742 1440 291.742" stroke="#D4BF79" stroke-opacity="0.55" stroke-width="2"/>
<path opacity="0.333333" d="M-5 352.322C-5 352.322 284.5 165.946 752 182.822C1219.5 199.699 1440 352.322 1440 352.322" stroke="#D4BF79" stroke-opacity="0.55" stroke-width="2"/>
<path opacity="0.444444" d="M-5 412.903C-5 412.903 284.5 226.526 752 243.403C1219.5 260.279 1440 412.903 1440 412.903" stroke="#D4BF79" stroke-opacity="0.55" stroke-width="2"/>
<path opacity="0.555556" d="M-5 473.483C-5 473.483 284.5 287.107 752 303.983C1219.5 320.86 1440 473.483 1440 473.483" stroke="#D4BF79" stroke-opacity="0.55" stroke-width="2"/>
<path opacity="0.666667" d="M-5 534.064C-5 534.064 284.5 347.687 752 364.564C1219.5 381.441 1440 534.064 1440 534.064" stroke="#D4BF79" stroke-opacity="0.55" stroke-width="2"/>
<path opacity="0.777778" d="M-5 594.645C-5 594.645 284.5 408.268 752 425.145C1219.5 442.021 1440 594.645 1440 594.645" stroke="#D4BF79" stroke-opacity="0.55" stroke-width="2"/>
<path opacity="0.888889" d="M-5 655.225C-5 655.225 284.5 468.849 752 485.725C1219.5 502.602 1440 655.225 1440 655.225" stroke="#D4BF79" stroke-opacity="0.55" stroke-width="2"/>
<path d="M-5 715.806C-5 715.806 284.5 529.429 752 546.306C1219.5 563.182 1440 715.806 1440 715.806" stroke="#D4BF79" stroke-opacity="0.55" stroke-width="2"/>
</svg>
