<svg width="1440" height="2616" viewBox="0 0 1440 2616" fill="none" xmlns="http://www.w3.org/2000/svg">
<path opacity="0.0344828" d="M1597.3 1293.15C1593.93 1301.27 1597.57 1392.64 1517.97 1461.92C1438.38 1531.19 1278.83 1597.27 1189.54 1680.2C1100.24 1763.13 1032.25 1910.27 952.641 1989.86C873.033 2069.44 767.584 2094.1 707.643 2131.06C647.703 2168.02 569.196 2252.83 583.088 2359.29C596.98 2465.74 424.684 2497.06 424.684 2497.06" stroke="#D4BF79"/>
<path opacity="0.0689655" d="M1596.98 1292.06C1592.75 1299.91 1586.53 1391.26 1499.83 1454.7C1413.13 1518.14 1247.18 1572.76 1149.35 1649.13C1051.53 1725.5 967.991 1867.39 880.168 1941.11C792.345 2014.82 684.713 2031.97 621.06 2064.58C557.406 2097.2 470.116 2176.21 472.481 2283.32C474.846 2390.42 299.949 2409.48 299.949 2409.48" stroke="#D4BF79"/>
<path opacity="0.103448" d="M1597.08 1291.3C1592.03 1298.83 1576 1389.45 1482.86 1446.58C1389.71 1503.71 1218.62 1546.45 1113.01 1615.68C1007.39 1684.91 908.95 1820.46 813.581 1887.75C718.211 1955.05 609.214 1964.54 542.333 1992.57C475.452 2020.59 380.043 2093.2 370.862 2200.13C361.682 2307.07 185.514 2313.73 185.514 2313.73" stroke="#D4BF79"/>
<path opacity="0.137931" d="M1597.58 1290.91C1591.74 1298.06 1566.02 1387.26 1467.14 1437.64C1368.26 1488.02 1193.33 1518.56 1080.74 1580.13C968.139 1641.69 855.537 1769.87 753.348 1830.23C651.158 1890.58 541.626 1892.36 472.026 1915.58C402.425 1938.8 299.623 2004.45 278.967 2110.4C258.312 2216.35 82.2146 2210.57 82.2146 2210.57" stroke="#D4BF79"/>
<path opacity="0.172414" d="M1598.43 1290.91C1591.84 1297.62 1556.63 1384.73 1452.77 1427.98C1348.91 1471.23 1171.47 1489.33 1052.75 1542.76C934.026 1596.19 808.123 1716.03 699.891 1768.99C591.658 1821.94 482.424 1815.99 410.635 1834.23C338.845 1852.47 229.433 1910.66 197.459 2014.82C165.485 2118.98 -9.20162 2100.79 -9.20162 2100.79" stroke="#D4BF79"/>
<path opacity="0.206897" d="M1599.59 1291.32C1592.31 1297.55 1547.87 1381.9 1439.82 1417.69C1331.76 1453.48 1153.17 1459 1029.22 1503.89C905.277 1548.78 767.031 1659.36 653.579 1704.52C540.128 1749.68 432.024 1736.04 358.591 1749.16C285.159 1762.27 169.969 1812.57 126.92 1914.14C83.8708 2015.72 -88.0754 1985.27 -88.0754 1985.27" stroke="#D4BF79"/>
<path opacity="0.241379" d="M1601.01 1292.17C1593.09 1297.87 1539.77 1378.82 1428.34 1406.87C1316.92 1434.92 1138.53 1427.84 1010.3 1463.84C882.073 1499.85 732.536 1600.33 614.729 1637.35C496.922 1674.36 390.77 1653.14 316.254 1661.03C241.737 1668.93 121.646 1710.94 67.8496 1809.16C14.0534 1907.39 -153.844 1864.9 -153.844 1864.9" stroke="#D4BF79"/>
<path opacity="0.275862" d="M1602.64 1293.47C1594.14 1298.59 1532.34 1375.53 1418.39 1395.63C1304.44 1415.74 1127.62 1396.09 996.085 1422.94C864.554 1449.79 704.864 1539.41 583.598 1568C462.332 1596.58 358.941 1567.94 283.907 1570.56C208.873 1573.17 84.7949 1606.58 20.6609 1700.7C-43.4731 1794.82 -206.044 1740.63 -206.044 1740.63" stroke="#D4BF79"/>
<path opacity="0.310345" d="M1604.43 1295.23C1595.42 1299.74 1525.61 1372.08 1410.01 1384.08C1294.4 1396.09 1120.48 1364.03 986.65 1381.52C852.815 1399 684.188 1477.08 560.385 1497.02C436.583 1516.96 336.739 1481.12 261.76 1478.43C186.78 1475.75 59.6591 1500.3 -14.3247 1589.6C-88.3085 1678.9 -244.316 1613.42 -244.316 1613.42" stroke="#D4BF79"/>
<path opacity="0.344828" d="M1606.34 1297.47C1596.88 1301.33 1519.59 1368.52 1403.21 1372.33C1286.84 1376.14 1117.15 1331.92 982.028 1339.91C846.909 1347.9 670.628 1413.84 545.232 1424.99C419.835 1436.14 324.299 1393.36 249.944 1385.4C175.589 1377.43 46.3926 1392.94 -36.8779 1476.74C-120.148 1560.54 -268.404 1484.26 -268.404 1484.26" stroke="#D4BF79"/>
<path opacity="0.37931" d="M1608.31 1300.2C1598.48 1303.37 1514.3 1364.9 1398.03 1360.49C1281.76 1356.08 1117.59 1300.03 982.219 1298.46C846.844 1296.9 664.25 1350.2 538.215 1352.46C412.179 1354.73 321.676 1305.35 248.512 1292.17C175.348 1278.98 45.0593 1285.33 -46.8641 1363C-138.788 1440.66 -278.164 1354.16 -278.164 1354.16" stroke="#D4BF79"/>
<path opacity="0.413793" d="M1610.29 1303.4C1600.16 1305.88 1509.73 1361.27 1394.45 1348.68C1279.18 1336.08 1121.79 1268.62 987.184 1257.52C852.583 1246.41 665.066 1286.66 539.35 1280.03C413.634 1273.4 328.854 1217.79 257.438 1199.49C186.021 1181.18 55.6319 1178.32 -44.2449 1249.26C-144.122 1320.2 -273.558 1224.13 -273.558 1224.13" stroke="#D4BF79"/>
<path opacity="0.448276" d="M1612.22 1307.09C1601.87 1308.85 1505.88 1357.69 1392.48 1337C1279.08 1316.32 1129.65 1237.97 996.847 1217.4C864.045 1196.83 673.033 1223.73 548.593 1208.25C424.153 1192.78 345.742 1131.37 276.616 1108.08C207.49 1084.8 77.9926 1072.75 -29.0774 1136.42C-136.147 1200.09 -254.658 1095.2 -254.658 1095.2" stroke="#D4BF79"/>
<path opacity="0.482759" d="M1614.06 1311.26C1603.56 1312.28 1502.74 1354.2 1392.08 1325.58C1281.41 1296.96 1141.09 1208.32 1011.1 1178.45C881.105 1148.58 688.051 1161.92 565.835 1137.71C443.618 1113.51 372.172 1046.76 305.863 1018.67C239.555 990.582 111.935 969.434 -1.51373 1025.35C-114.962 1081.27 -221.646 968.351 -221.646 968.351" stroke="#D4BF79"/>
<path opacity="0.517241" d="M1615.75 1315.91C1605.19 1316.18 1500.31 1350.85 1393.22 1314.52C1286.13 1278.18 1155.99 1179.92 1029.79 1140.98C903.597 1102.03 709.971 1101.71 590.908 1068.96C471.845 1036.21 407.908 964.631 344.92 931.955C281.933 899.279 157.162 869.195 38.1988 916.938C-80.7645 964.681 -174.809 844.586 -174.809 844.586" stroke="#D4BF79"/>
<path opacity="0.551724" d="M1617.24 1321.01C1606.7 1320.53 1498.55 1347.7 1395.86 1303.93C1293.16 1260.15 1174.18 1153.02 1052.75 1105.29C931.313 1057.57 738.587 1043.59 623.583 1002.55C508.58 961.506 452.638 885.639 393.452 848.622C334.266 811.605 213.293 772.815 89.7203 812.017C-33.8526 851.22 -114.542 724.868 -114.542 724.868" stroke="#D4BF79"/>
<path opacity="0.586207" d="M1618.49 1326.55C1608.05 1325.34 1497.46 1344.79 1399.94 1293.91C1302.42 1243.03 1195.51 1127.84 1079.76 1071.7C964.003 1015.56 773.645 988.032 663.576 939.005C553.508 889.978 505.987 810.403 451.053 769.328C396.118 728.253 279.864 681.052 152.622 711.415C25.3803 741.778 -41.3405 610.131 -41.3405 610.131" stroke="#D4BF79"/>
<path opacity="0.62069" d="M1619.45 1332.52C1609.19 1330.58 1496.99 1342.17 1405.39 1284.57C1313.78 1226.97 1219.76 1104.6 1110.57 1040.47C1001.38 976.34 814.84 935.472 710.545 878.835C606.249 822.198 567.511 739.521 517.246 694.7C466.981 649.879 356.331 594.626 226.388 615.918C96.4454 637.211 44.2015 501.271 44.2015 501.271" stroke="#D4BF79"/>
<path opacity="0.655172" d="M1620.07 1338.9C1610.06 1336.23 1497.12 1339.87 1412.13 1275.99C1327.14 1212.11 1246.72 1083.49 1144.92 1011.86C1043.13 940.235 861.823 886.337 764.094 822.522C666.365 758.706 636.704 673.556 591.491 625.33C546.279 577.103 442.074 514.219 310.419 526.279C178.765 538.34 141.395 399.141 141.395 399.141" stroke="#D4BF79"/>
<path opacity="0.689655" d="M1620.31 1345.65C1610.64 1342.28 1497.81 1337.95 1420.08 1268.27C1342.35 1198.6 1276.13 1064.71 1182.51 986.126C1088.89 907.542 914.198 841.025 823.779 770.516C733.36 700.007 713.003 613.032 673.186 561.768C633.37 510.504 536.404 440.467 404.04 443.203C271.675 445.939 249.465 304.541 249.465 304.541" stroke="#D4BF79"/>
<path opacity="0.724138" d="M1620.14 1352.75C1610.87 1348.71 1499.01 1336.44 1429.13 1261.5C1359.25 1186.55 1307.76 1048.42 1223.02 963.475C1138.27 878.534 971.53 799.904 889.109 723.238C806.688 646.573 795.789 558.434 761.672 504.523C727.555 450.611 638.566 373.954 506.499 367.345C374.432 360.737 367.549 218.215 367.549 218.215" stroke="#D4BF79"/>
<path opacity="0.758621" d="M1619.51 1360.17C1610.71 1355.5 1500.68 1335.37 1439.19 1255.73C1377.69 1176.1 1341.3 1034.76 1266.09 944.107C1190.87 853.455 1033.34 763.31 959.549 681.071C885.754 598.833 884.396 510.202 856.238 454.053C828.08 397.904 747.745 315.21 616.981 299.307C486.217 283.404 494.714 140.844 494.714 140.844" stroke="#D4BF79"/>
<path opacity="0.793103" d="M1618.39 1367.88C1610.14 1362.6 1502.77 1334.77 1450.13 1251.05C1397.48 1167.33 1376.48 1023.87 1311.36 928.192C1246.25 832.519 1099.13 731.545 1034.53 644.36C969.918 557.174 978.112 468.725 956.127 410.766C934.142 352.807 863.073 264.706 734.606 239.629C606.14 214.552 629.953 73.039 629.953 73.039" stroke="#D4BF79"/>
<path opacity="0.827586" d="M1616.76 1375.84C1609.12 1369.99 1505.22 1334.68 1461.83 1247.51C1418.44 1160.33 1412.98 1015.84 1358.46 915.875C1303.94 815.909 1168.36 704.876 1113.43 613.406C1058.5 521.936 1076.19 434.343 1060.54 375.015C1044.9 315.687 983.634 222.849 858.444 188.79C733.253 154.73 772.2 15.3406 772.2 15.3406" stroke="#D4BF79"/>
<path opacity="0.862069" d="M1614.6 1384.01C1607.61 1377.65 1507.99 1335.12 1474.18 1245.16C1440.37 1155.2 1450.5 1010.77 1406.99 907.274C1363.48 803.775 1240.46 683.527 1195.63 588.47C1150.8 493.413 1177.84 407.341 1168.65 347.096C1159.47 286.85 1108.48 189.983 987.513 147.2C866.55 104.417 920.335 -31.7891 920.335 -31.7891" stroke="#D4BF79"/>
<path opacity="0.896552" d="M1611.87 1392.37C1605.6 1385.53 1511 1336.1 1487.04 1244.04C1463.07 1151.98 1488.7 1008.72 1456.53 902.476C1424.37 796.234 1314.85 667.685 1280.46 569.764C1246.06 471.842 1282.25 387.948 1279.59 327.244C1276.94 266.539 1236.61 166.379 1120.79 115.198C1004.98 64.0168 1073.19 -67.9679 1073.19 -67.9679" stroke="#D4BF79"/>
<path opacity="0.931035" d="M1608.56 1400.85C1603.06 1393.59 1514.21 1337.65 1500.26 1244.19C1486.32 1150.72 1527.27 1009.72 1506.69 901.543C1486.1 793.365 1390.92 657.494 1367.23 557.454C1343.53 457.414 1388.59 376.335 1392.49 315.634C1396.38 254.932 1367.02 152.241 1257.24 93.0521C1147.45 33.8627 1229.58 -92.8967 1229.58 -92.8967" stroke="#D4BF79"/>
<path opacity="0.965517" d="M1604.67 1409.43C1599.98 1401.81 1517.55 1339.78 1513.73 1245.62C1509.91 1151.46 1565.86 1013.8 1557.02 904.504C1548.19 795.214 1468.06 653.056 1455.25 551.658C1442.43 450.261 1496.02 372.614 1506.44 312.378C1516.85 252.141 1498.68 147.702 1395.77 80.9543C1292.85 14.207 1388.26 -106.362 1388.26 -106.362" stroke="#D4BF79"/>
</svg>
