<svg width="389" height="177" viewBox="0 0 389 177" fill="none" xmlns="http://www.w3.org/2000/svg">
<path d="M78.125 37.8125C81.1667 38.5625 83.0833 39.125 83.875 39.5C84.7083 39.875 85.125 40.25 85.125 40.625C85.125 40.9583 84.7917 41.4375 84.125 42.0625C83.4583 42.6875 82.625 43.3958 81.625 44.1875C80.625 44.9375 79.5208 45.75 78.3125 46.625C77.1042 47.5 75.9583 48.2917 74.875 49C72.2917 50.7083 70.75 51.6458 70.25 51.8125C70.2917 51.6458 70.6042 51.3333 71.1875 50.875C72.2708 50 72.8125 49.4583 72.8125 49.25C72.8125 49 72.7083 48.8125 72.5 48.6875C72.3333 48.5208 72.125 48.3958 71.875 48.3125C71.6667 48.1875 71.4583 48.0833 71.25 48C71.0417 47.9167 70.25 47.625 68.875 47.125C65.5833 45.8333 60.8542 45.1875 54.6875 45.1875C48.5208 45.1875 43.1875 45.9167 38.6875 47.375C34.2292 48.7917 30.4375 50.9583 27.3125 53.875C20.8542 59.9167 17.625 68.7083 17.625 80.25C17.625 91.9583 20.8333 101.854 27.25 109.938C34.1667 118.604 43.25 122.938 54.5 122.938C61.9583 122.938 71.1042 120.562 81.9375 115.812C81.6042 116.104 81.2917 116.375 81 116.625C80.5833 117.083 80.0625 117.562 79.4375 118.062C67.3125 127.146 54.75 131.688 41.75 131.688C30.5417 131.688 21.5833 127.458 14.875 119C8.66667 111.125 5.5625 101.354 5.5625 89.6875C5.5625 83.6875 6.4375 78.625 8.1875 74.5C9.97917 70.3333 12.0625 66.625 14.4375 63.375C16.8125 60.125 19.5 57.125 22.5 54.375C25.5417 51.625 28.8125 49.1667 32.3125 47C35.8542 44.7917 39.5208 42.9167 43.3125 41.375C51.1042 38.2083 58.9583 36.625 66.875 36.625C71.3333 36.625 75.0833 37.0208 78.125 37.8125ZM138.5 117.438C132.792 123.812 125.708 127.792 117.25 129.375C115.292 129.708 112.875 129.875 110 129.875C107.125 129.875 104.417 129.083 101.875 127.5C99.3333 125.875 97.25 123.792 95.625 121.25C92.5417 116.333 91 110.333 91 103.25C91 98.5833 92.7917 93.4167 96.375 87.75C99.875 82.1667 104.146 77.5 109.188 73.75C114.604 69.75 119.729 67.75 124.562 67.75C127.062 67.75 129.167 68.6667 130.875 70.5C132.458 72.2917 133.25 74.3333 133.25 76.625C133.25 78.9167 132.75 81.0417 131.75 83C130.75 84.9167 129.438 86.7917 127.812 88.625C126.229 90.4583 124.396 92.2292 122.312 93.9375C120.271 95.6042 118.167 97.1667 116 98.625C112.958 100.708 109.125 103.062 104.5 105.688C105.833 110.729 108.188 114.625 111.562 117.375C114.938 120.083 119.292 121.438 124.625 121.438C129.125 121.438 133.75 120.104 138.5 117.438ZM119.625 92.375C120.75 90.5833 121.312 88.8333 121.312 87.125C121.312 85.4167 121.125 83.9792 120.75 82.8125C120.375 81.6042 119.833 80.5417 119.125 79.625C117.5 77.5417 115.396 76.5 112.812 76.5C106.479 76.5 103.312 82.9583 103.312 95.875C103.312 98.1667 103.5 100.438 103.875 102.688C111.208 100.646 116.458 97.2083 119.625 92.375ZM152.875 124.75L152.938 84.5625C152.938 81.7708 152.562 79.8958 151.812 78.9375C150.521 77.2708 148.729 76.4375 146.438 76.4375C144.146 76.4375 142.104 76.7708 140.312 77.4375C141.396 77.0208 142.812 76.0417 144.562 74.5C147.771 71.5417 150.042 69.8125 151.375 69.3125C153.875 68.3125 156.062 67.8125 157.938 67.8125C159.854 67.8125 161.271 68.125 162.188 68.75C163.146 69.375 163.833 70.2083 164.25 71.25C164.792 72.5417 165.062 75 165.062 78.625C172.854 71.75 180.146 68.3125 186.938 68.3125C190.646 68.3125 193.875 69.4792 196.625 71.8125C199.5 74.3125 200.938 77.3542 200.938 80.9375V111.812C200.938 114.896 201.271 117.021 201.938 118.188C203.188 120.396 205.271 121.5 208.188 121.5C209.854 121.5 211.438 121.188 212.938 120.562C209.229 123.771 206.667 125.833 205.25 126.75C202 128.875 199.146 129.938 196.688 129.938C194.271 129.938 192.542 129.5 191.5 128.625C190.5 127.75 189.792 126.646 189.375 125.312C188.917 123.854 188.688 120.875 188.688 116.375V93C188.688 85.5417 186.25 80.625 181.375 78.25C179.625 77.4167 177.521 77 175.062 77C169.021 77 165.75 81.4792 165.25 90.4375C165.125 92.6875 165.062 94.7083 165.062 96.5V115.812C165.062 118.479 165.875 120.292 167.5 121.25C168.083 121.625 168.812 121.812 169.688 121.812C170.562 121.812 171.479 121.604 172.438 121.188C171.562 121.938 170.521 122.833 169.312 123.875C168.104 124.917 166.833 125.917 165.5 126.875C162.208 129.125 159.583 130.25 157.625 130.25C154.458 130.25 152.875 128.417 152.875 124.75ZM224.375 124.75L224.438 84.5625C224.438 81.7708 224.062 79.8958 223.312 78.9375C222.021 77.2708 220.229 76.4375 217.938 76.4375C215.646 76.4375 213.604 76.7708 211.812 77.4375C212.896 77.0208 214.312 76.0417 216.062 74.5C219.271 71.5417 221.542 69.8125 222.875 69.3125C225.375 68.3125 227.562 67.8125 229.438 67.8125C231.354 67.8125 232.771 68.125 233.688 68.75C234.646 69.375 235.333 70.2083 235.75 71.25C236.292 72.5417 236.562 75 236.562 78.625C244.354 71.75 251.646 68.3125 258.438 68.3125C262.146 68.3125 265.375 69.4792 268.125 71.8125C271 74.3125 272.438 77.3542 272.438 80.9375V111.812C272.438 114.896 272.771 117.021 273.438 118.188C274.688 120.396 276.771 121.5 279.688 121.5C281.354 121.5 282.938 121.188 284.438 120.562C280.729 123.771 278.167 125.833 276.75 126.75C273.5 128.875 270.646 129.938 268.188 129.938C265.771 129.938 264.042 129.5 263 128.625C262 127.75 261.292 126.646 260.875 125.312C260.417 123.854 260.188 120.875 260.188 116.375V93C260.188 85.5417 257.75 80.625 252.875 78.25C251.125 77.4167 249.021 77 246.562 77C240.521 77 237.25 81.4792 236.75 90.4375C236.625 92.6875 236.562 94.7083 236.562 96.5V115.812C236.562 118.479 237.375 120.292 239 121.25C239.583 121.625 240.312 121.812 241.188 121.812C242.062 121.812 242.979 121.604 243.938 121.188C243.062 121.938 242.021 122.833 240.812 123.875C239.604 124.917 238.333 125.917 237 126.875C233.708 129.125 231.083 130.25 229.125 130.25C225.958 130.25 224.375 128.417 224.375 124.75ZM307.25 22.9375L307.625 30.0625V33.3125C307.625 35.3125 307.375 36.5417 306.875 37C306.375 37.4167 305.833 37.8333 305.25 38.25C302.917 39.9167 299.542 42.1667 295.125 45C295.333 40.8333 295.438 38.6875 295.438 38.5625C295.438 38.3958 295.333 36.0208 295.125 31.4375L307.25 22.9375ZM320.312 121.312C319.062 122.312 317.833 123.333 316.625 124.375C315.458 125.417 314.229 126.375 312.938 127.25C309.938 129.208 307.062 130.188 304.312 130.188C301.729 130.188 299.917 129.792 298.875 129C296.75 127.417 295.688 124.5 295.688 120.25V90.625C295.688 86.125 294.875 83.2083 293.25 81.875C292.5 81.25 291.688 80.9375 290.812 80.9375C289.938 80.9375 289.188 81 288.562 81.125C287.979 81.2083 287.375 81.3125 286.75 81.4375C286.125 81.5625 285.479 81.6875 284.812 81.8125C286.896 80.1875 288.833 78.7292 290.625 77.4375C292.458 76.1458 294.021 75.0625 295.312 74.1875C296.604 73.3125 298.396 72.0833 300.688 70.5C302.979 68.875 305.354 67.4167 307.812 66.125V110.25C307.812 114.5 308.083 117.188 308.625 118.312C309.792 120.604 312.375 121.75 316.375 121.75C317.458 121.75 318.771 121.604 320.312 121.312ZM329.812 45.4375C329.812 39.1875 327.979 36.0625 324.312 36.0625C323.229 36.0625 321.438 36.375 318.938 37C320.646 35.7083 322.438 34.3542 324.312 32.9375C326.229 31.4792 328.167 30.0417 330.125 28.625C334.375 25.6667 338.333 23.2292 342 21.3125L341.938 78.6875C346.604 74.5208 351.792 71.4583 357.5 69.5C359.417 68.8333 361.104 68.5 362.562 68.5C364.021 68.5 365.312 68.75 366.438 69.25C367.604 69.75 368.604 70.4167 369.438 71.25C371.229 73.125 372.125 75.2292 372.125 77.5625C372.125 79.8958 371.542 82.0208 370.375 83.9375C369.208 85.8125 367.771 87.5833 366.062 89.25C363.646 91.6667 360.083 94.3958 355.375 97.4375C355.958 98.0625 356.875 99.0833 358.125 100.5C359.417 101.917 360.854 103.5 362.438 105.25C364.062 107 365.771 108.812 367.562 110.688C369.396 112.562 371.125 114.271 372.75 115.812C376.5 119.354 378.958 121.125 380.125 121.125C383.042 121.125 385.917 120.312 388.75 118.688C385.167 123.604 380.771 127.062 375.562 129.062C373.812 129.729 372.271 130.062 370.938 130.062C369.646 130.062 368.604 129.917 367.812 129.625C367.062 129.333 366.333 128.958 365.625 128.5C364.25 127.583 362.396 125.958 360.062 123.625C355.188 118.708 349.146 112.354 341.938 104.562V111C341.938 111.958 341.917 113.062 341.875 114.312C341.875 115.521 342 116.688 342.25 117.812C342.833 120.479 344.292 121.812 346.625 121.812C347.5 121.812 348.417 121.604 349.375 121.188C348.5 121.938 347.479 122.833 346.312 123.875C345.188 124.917 343.979 125.917 342.688 126.875C339.604 129.167 337.062 130.312 335.062 130.312C331.562 130.312 329.812 127.312 329.812 121.312V45.4375ZM350.75 77C344.875 77 341.938 84.5208 341.938 99.5625V102.812C349.562 99.7708 354.958 95.9792 358.125 91.4375C359.375 89.6458 360 87.9167 360 86.25C360 84.5417 359.75 83.1667 359.25 82.125C358.75 81.0417 358.083 80.125 357.25 79.375C355.417 77.7917 353.25 77 350.75 77Z" fill="url(#paint0_linear_29_2)"/>
<rect x="17" y="152" width="114" height="6" rx="3" fill="url(#paint1_linear_29_2)"/>
<rect x="17" y="152" width="114" height="6" rx="3" stroke="black"/>
<defs>
<linearGradient id="paint0_linear_29_2" x1="193.5" y1="0" x2="193.5" y2="177" gradientUnits="userSpaceOnUse">
<stop stop-color="#D4BF79"/>
<stop offset="1" stop-color="#B0912A"/>
</linearGradient>
<linearGradient id="paint1_linear_29_2" x1="17" y1="155" x2="131" y2="155" gradientUnits="userSpaceOnUse">
<stop stop-color="#D4BF79"/>
<stop offset="1" stop-color="#B0912A"/>
</linearGradient>
</defs>
</svg>
