<svg width="330" height="63" viewBox="0 0 330 63" fill="none" xmlns="http://www.w3.org/2000/svg">
<g filter="url(#filter0_di_3_18003)">
<path d="M4.57812 9.46094C7.17188 7.33594 8.6875 6.27344 9.125 6.27344H35.5625C35.3594 6.30469 34.8828 6.64844 34.1328 7.30469C33.3828 7.96094 32.8594 8.40625 32.5625 8.64062C31.8438 9.1875 31.3281 9.46094 31.0156 9.46094H21.4062V30.9062C21.4062 32.7969 21.0859 34.3594 20.4453 35.5938C20.1641 36.125 19.8516 36.5312 19.5078 36.8125H27.2422C27.0234 36.8438 26.5391 37.1875 25.7891 37.8438C25.0391 38.5 24.5156 38.9453 24.2188 39.1797C23.5 39.7266 22.9844 40 22.6719 40H14.5156C15.4531 39.1562 16.0391 38.4453 16.2734 37.8672C16.6484 36.9453 16.8359 35.7891 16.8359 34.3984V9.46094H4.57812ZM49.5312 35.6641C47.3906 38.0547 44.7344 39.5469 41.5625 40.1406C40.8281 40.2656 39.9219 40.3281 38.8438 40.3281C37.7656 40.3281 36.75 40.0312 35.7969 39.4375C34.8438 38.8281 34.0625 38.0469 33.4531 37.0938C32.2969 35.25 31.7188 33 31.7188 30.3438C31.7188 28.5938 32.3906 26.6562 33.7344 24.5312C35.0469 22.4375 36.6484 20.6875 38.5391 19.2812C40.5703 17.7812 42.4922 17.0312 44.3047 17.0312C45.2422 17.0312 46.0312 17.375 46.6719 18.0625C47.2656 18.7344 47.5625 19.5 47.5625 20.3594C47.5625 21.2188 47.375 22.0156 47 22.75C46.625 23.4688 46.1328 24.1719 45.5234 24.8594C44.9297 25.5469 44.2422 26.2109 43.4609 26.8516C42.6953 27.4766 41.9062 28.0625 41.0938 28.6094C39.9531 29.3906 38.5156 30.2734 36.7812 31.2578C37.2812 33.1484 38.1641 34.6094 39.4297 35.6406C40.6953 36.6562 42.3281 37.1641 44.3281 37.1641C46.0156 37.1641 47.75 36.6641 49.5312 35.6641ZM42.4531 26.2656C42.875 25.5938 43.0859 24.9375 43.0859 24.2969C43.0859 23.6562 43.0156 23.1172 42.875 22.6797C42.7344 22.2266 42.5312 21.8281 42.2656 21.4844C41.6562 20.7031 40.8672 20.3125 39.8984 20.3125C37.5234 20.3125 36.3359 22.7344 36.3359 27.5781C36.3359 28.4375 36.4062 29.2891 36.5469 30.1328C39.2969 29.3672 41.2656 28.0781 42.4531 26.2656ZM73.2031 17.2188C71.3125 20 69.0234 21.3906 66.3359 21.3906C65.8984 21.3906 65.3359 21.2188 64.6484 20.875C63.3359 20.2188 62.4453 19.8906 61.9766 19.8906C61.5234 19.8906 61.1562 20.0391 60.875 20.3359C60.5938 20.6328 60.3594 21.0469 60.1719 21.5781C59.75 22.7344 59.5391 24.2344 59.5391 26.0781V35.0547C59.5391 36.0547 59.8438 36.7344 60.4531 37.0938C60.6719 37.2344 60.9453 37.3047 61.2734 37.3047C61.6016 37.3047 61.9453 37.2266 62.3047 37.0703C61.9922 37.3516 61.6875 37.6875 61.3906 38.0781C61.0938 38.4531 60.7578 38.8203 60.3828 39.1797C59.4922 40.0391 58.4375 40.4688 57.2188 40.4688C56.5938 40.4688 56.0625 40.2734 55.625 39.8828C55.1875 39.4766 54.9688 38.9844 54.9688 38.4062V24.9062C54.9688 24.3594 54.9766 23.8125 54.9922 23.2656C55.0078 22.7188 54.9531 22.2188 54.8281 21.7656C54.5312 20.7812 53.6797 20.2891 52.2734 20.2891C51.6016 20.2891 50.9297 20.4141 50.2578 20.6641C50.6641 20.5234 51.1875 20.1562 51.8281 19.5625C53.0781 18.4375 53.9453 17.7812 54.4297 17.5938C55.4297 17.2344 56.2344 17.0547 56.8438 17.0547C57.4688 17.0547 57.9453 17.1484 58.2734 17.3359C58.6172 17.5078 58.8828 17.75 59.0703 18.0625C59.3828 18.5781 59.5391 19.375 59.5391 20.4531C59.9922 20.1094 60.4844 19.7266 61.0156 19.3047C61.5625 18.8672 62.125 18.4531 62.7031 18.0625C64.0938 17.1406 65.3047 16.6797 66.3359 16.6797C66.9453 16.6797 67.5859 16.8516 68.2578 17.1953C68.9297 17.5391 69.4297 17.7891 69.7578 17.9453C70.0859 18.1016 70.3906 18.1797 70.6719 18.1797C71.2969 18.1797 72.1406 17.8594 73.2031 17.2188ZM88.2734 33.0625L88.2266 34.7031C88.2266 35.9219 88.5703 36.6953 89.2578 37.0234C89.5234 37.1484 89.8281 37.2109 90.1719 37.2109C90.7188 37.2109 91.2812 37.0859 91.8594 36.8359C91.2656 37.0859 90.75 37.4141 90.3125 37.8203C89.875 38.2266 89.4297 38.625 88.9766 39.0156C87.8516 39.9531 86.7188 40.4219 85.5781 40.4219C84.4375 40.4219 83.8281 39.7656 83.75 38.4531C83.7188 38.1094 83.7031 37.7656 83.7031 37.4219C80.8906 39.375 78.3125 40.3516 75.9688 40.3516C73.9844 40.3516 72.6094 39.75 71.8438 38.5469C71.5625 38.1094 71.4219 37.5078 71.4219 36.7422C71.4219 35.9766 71.6562 35.2109 72.125 34.4453C72.5938 33.6641 73.1875 32.9531 73.9062 32.3125C75.1875 31.125 76.7344 30.1484 78.5469 29.3828C79.8906 28.8047 81.6172 28.4766 83.7266 28.3984V27.3672C83.7266 24.8828 83.5 23.2031 83.0469 22.3281C82.5938 21.4531 82.0078 20.8125 81.2891 20.4062C80.5703 19.9844 79.7266 19.7734 78.7578 19.7734C77.1172 19.7734 75.6719 20.0938 74.4219 20.7344C76.1406 19.3125 77.3984 18.375 78.1953 17.9219C79.8359 17 81.3203 16.5391 82.6484 16.5391C83.9922 16.5391 85 16.7344 85.6719 17.125C86.3438 17.5156 86.875 18.0312 87.2656 18.6719C87.9375 19.7969 88.2734 21.4141 88.2734 23.5234V33.0625ZM77.2578 36.4375C77.6328 36.7031 78.0703 36.8984 78.5703 37.0234C79.0703 37.1484 79.8125 37.2109 80.7969 37.2109C81.7812 37.2109 82.7578 36.9766 83.7266 36.5078V31.5859H79.9297C78.5703 31.5859 77.3828 31.6797 76.3672 31.8672C76.1641 32.5391 76.0625 33.1797 76.0625 33.7891C76.0625 34.3984 76.1641 34.9219 76.3672 35.3594C76.5859 35.7969 76.8828 36.1562 77.2578 36.4375ZM92.3281 20.6172C95.0781 18.1641 97.3047 16.9375 99.0078 16.9375C100.43 16.9375 101.227 17.7188 101.398 19.2812C101.445 19.7188 101.469 20.1562 101.469 20.5938C103.047 19.4375 104.172 18.6797 104.844 18.3203C106.297 17.5234 107.695 17.125 109.039 17.125C110.398 17.125 111.602 17.3906 112.648 17.9219C113.711 18.4375 114.578 19.1484 115.25 20.0547C116.516 21.7891 117.148 24.1016 117.148 26.9922C117.148 30.4141 115.609 33.5156 112.531 36.2969C110.688 37.9688 108.594 39.1562 106.25 39.8594C105.094 40.1875 104.102 40.3516 103.273 40.3516C102.461 40.3516 101.859 40.3125 101.469 40.2344V46.9375C101.469 48.6562 100.922 50.0312 99.8281 51.0625H105.547C105.375 51.0781 105.094 51.25 104.703 51.5781C104.312 51.9219 103.891 52.2891 103.438 52.6797C102.188 53.7266 101.375 54.25 101 54.25H95.2812C96.3594 52.8281 96.8984 51.1406 96.8984 49.1875V23.1953C96.8984 22.1641 96.7734 21.4766 96.5234 21.1328C96.0703 20.4922 95.4297 20.1719 94.6016 20.1719C93.7734 20.1719 93.0156 20.3203 92.3281 20.6172ZM101.469 33.8125C102.797 36.0938 104.828 37.2344 107.562 37.2344C110.438 37.2344 112.062 35.8125 112.438 32.9688C112.562 32.1094 112.625 31.1094 112.625 29.9688C112.625 28.8125 112.484 27.6406 112.203 26.4531C111.922 25.25 111.469 24.1953 110.844 23.2891C109.453 21.3047 107.375 20.3125 104.609 20.3125C103.375 20.3125 102.328 21.0234 101.469 22.4453V33.8125ZM127.672 0.226562L127.812 2.89844V4.11719C127.812 4.86719 127.719 5.32813 127.531 5.5C127.344 5.65625 127.141 5.8125 126.922 5.96875C126.047 6.59375 124.781 7.4375 123.125 8.5C123.203 6.9375 123.242 6.13281 123.242 6.08594C123.242 6.02344 123.203 5.13281 123.125 3.41406L127.672 0.226562ZM132.57 37.1172C132.102 37.4922 131.641 37.875 131.188 38.2656C130.75 38.6562 130.289 39.0156 129.805 39.3438C128.68 40.0781 127.602 40.4453 126.57 40.4453C125.602 40.4453 124.922 40.2969 124.531 40C123.734 39.4062 123.336 38.3125 123.336 36.7188V25.6094C123.336 23.9219 123.031 22.8281 122.422 22.3281C122.141 22.0938 121.836 21.9766 121.508 21.9766C121.18 21.9766 120.898 22 120.664 22.0469C120.445 22.0781 120.219 22.1172 119.984 22.1641C119.75 22.2109 119.508 22.2578 119.258 22.3047C120.039 21.6953 120.766 21.1484 121.438 20.6641C122.125 20.1797 122.711 19.7734 123.195 19.4453C123.68 19.1172 124.352 18.6562 125.211 18.0625C126.07 17.4531 126.961 16.9062 127.883 16.4219V32.9688C127.883 34.5625 127.984 35.5703 128.188 35.9922C128.625 36.8516 129.594 37.2812 131.094 37.2812C131.5 37.2812 131.992 37.2266 132.57 37.1172ZM150.148 33.0625L150.102 34.7031C150.102 35.9219 150.445 36.6953 151.133 37.0234C151.398 37.1484 151.703 37.2109 152.047 37.2109C152.594 37.2109 153.156 37.0859 153.734 36.8359C153.141 37.0859 152.625 37.4141 152.188 37.8203C151.75 38.2266 151.305 38.625 150.852 39.0156C149.727 39.9531 148.594 40.4219 147.453 40.4219C146.312 40.4219 145.703 39.7656 145.625 38.4531C145.594 38.1094 145.578 37.7656 145.578 37.4219C142.766 39.375 140.188 40.3516 137.844 40.3516C135.859 40.3516 134.484 39.75 133.719 38.5469C133.438 38.1094 133.297 37.5078 133.297 36.7422C133.297 35.9766 133.531 35.2109 134 34.4453C134.469 33.6641 135.062 32.9531 135.781 32.3125C137.062 31.125 138.609 30.1484 140.422 29.3828C141.766 28.8047 143.492 28.4766 145.602 28.3984V27.3672C145.602 24.8828 145.375 23.2031 144.922 22.3281C144.469 21.4531 143.883 20.8125 143.164 20.4062C142.445 19.9844 141.602 19.7734 140.633 19.7734C138.992 19.7734 137.547 20.0938 136.297 20.7344C138.016 19.3125 139.273 18.375 140.07 17.9219C141.711 17 143.195 16.5391 144.523 16.5391C145.867 16.5391 146.875 16.7344 147.547 17.125C148.219 17.5156 148.75 18.0312 149.141 18.6719C149.812 19.7969 150.148 21.4141 150.148 23.5234V33.0625ZM139.133 36.4375C139.508 36.7031 139.945 36.8984 140.445 37.0234C140.945 37.1484 141.688 37.2109 142.672 37.2109C143.656 37.2109 144.633 36.9766 145.602 36.5078V31.5859H141.805C140.445 31.5859 139.258 31.6797 138.242 31.8672C138.039 32.5391 137.938 33.1797 137.938 33.7891C137.938 34.3984 138.039 34.9219 138.242 35.3594C138.461 35.7969 138.758 36.1562 139.133 36.4375ZM184.508 11.7109C185.039 11.1797 185.305 10.7969 185.305 10.5625C185.305 10.3125 185.188 10.1016 184.953 9.92969C184.734 9.75781 184.445 9.60938 184.086 9.48438C183.742 9.35938 183.352 9.25781 182.914 9.17969C182.492 9.08594 182.078 9.01562 181.672 8.96875C180.859 8.875 180.164 8.82812 179.586 8.82812C179.023 8.82812 178.367 8.88281 177.617 8.99219C176.883 9.10156 176.203 9.3125 175.578 9.625C174.156 10.3438 173.445 11.4141 173.445 12.8359C173.445 14.2578 173.703 15.3984 174.219 16.2578C174.75 17.1016 175.438 17.8047 176.281 18.3672C177.125 18.9297 178.086 19.3984 179.164 19.7734C180.258 20.1484 181.375 20.5 182.516 20.8281C183.656 21.1562 184.766 21.5078 185.844 21.8828C186.938 22.2578 187.906 22.7344 188.75 23.3125C190.641 24.6094 191.586 26.4141 191.586 28.7266C191.586 30.9922 190.625 33.0938 188.703 35.0312C187.062 36.6875 184.883 38.0469 182.164 39.1094C179.711 40.0781 177.359 40.5625 175.109 40.5625C173.719 40.5625 172.453 40.3984 171.312 40.0703C170.188 39.7422 169.391 39.4531 168.922 39.2031C167.828 38.6562 167.281 38.0078 167.281 37.2578C167.281 36.0547 169.07 34.4766 172.648 32.5234C172.18 33.0391 171.945 33.5391 171.945 34.0234C171.945 34.4922 172.094 34.8984 172.391 35.2422C172.703 35.5703 173.102 35.8594 173.586 36.1094C174.07 36.3438 174.609 36.5391 175.203 36.6953C175.812 36.8516 176.414 36.9766 177.008 37.0703C178.102 37.2422 179.094 37.3281 179.984 37.3281C180.875 37.3281 181.75 37.25 182.609 37.0938C183.469 36.9219 184.234 36.6328 184.906 36.2266C186.422 35.3203 187.18 33.8906 187.18 31.9375C187.18 28.9062 185.258 26.6562 181.414 25.1875C180.32 24.7812 179.195 24.3984 178.039 24.0391C176.898 23.6641 175.781 23.2812 174.688 22.8906C173.594 22.5 172.625 22.0312 171.781 21.4844C169.875 20.2344 168.922 18.5859 168.922 16.5391C168.922 14.8359 169.883 13.0781 171.805 11.2656C173.461 9.70312 175.547 8.35938 178.062 7.23438C180.453 6.15625 182.492 5.61719 184.18 5.61719C185.695 5.61719 186.914 5.75781 187.836 6.03906C188.758 6.32031 189.336 6.53906 189.57 6.69531C189.82 6.83594 189.945 7.00781 189.945 7.21094C189.945 7.39844 189.836 7.63281 189.617 7.91406C189.398 8.17969 189.117 8.46875 188.773 8.78125C188.43 9.09375 188.047 9.40625 187.625 9.71875C187.219 10.0312 186.812 10.3203 186.406 10.5859C185.469 11.1953 184.836 11.5703 184.508 11.7109ZM192.125 27.6484L196.812 24.5312V9.95312C196.812 7.8125 196.328 6.42187 195.359 5.78125C194.953 5.5 194.562 5.35938 194.188 5.35938C193.688 5.35938 193.352 5.375 193.18 5.40625C193.008 5.42188 192.859 5.4375 192.734 5.45312C194.984 3.89062 196.406 2.95312 197 2.64062C197.781 2.21875 198.586 1.80469 199.414 1.39844C200.258 0.976562 200.906 0.648438 201.359 0.414062V20.9688L202.953 19.5625C203.922 19.7344 204.859 19.7422 205.766 19.5859C206.688 19.4297 207.43 19.1953 207.992 18.8828C206.039 20.5547 203.828 22.1719 201.359 23.7344V32.7578C201.359 33.3984 201.359 33.9922 201.359 34.5391C201.375 35.0859 201.469 35.5625 201.641 35.9688C202.031 36.8125 203.016 37.2344 204.594 37.2344C205.094 37.2344 205.578 37.1875 206.047 37.0938C205.531 37.5 205.039 37.9062 204.57 38.3125C204.102 38.7188 203.617 39.0781 203.117 39.3906C202.008 40.1094 200.984 40.4688 200.047 40.4688C199.109 40.4688 198.445 40.3047 198.055 39.9766C197.68 39.6328 197.398 39.1953 197.211 38.6641C196.945 37.9141 196.812 36.7031 196.812 35.0312V26.2656C195.172 27.0781 193.688 27.7188 192.359 28.1875L192.125 27.6484ZM228.828 19.75C229.625 20.6562 230.242 21.6953 230.68 22.8672C231.133 24.0234 231.359 25.1875 231.359 26.3594C231.359 27.5312 231.188 28.6797 230.844 29.8047C230.5 30.9141 230.016 31.9844 229.391 33.0156C228.781 34.0469 228.055 35.0156 227.211 35.9219C226.383 36.8125 225.469 37.5938 224.469 38.2656C222.344 39.6875 220.195 40.3984 218.023 40.3984C215.477 40.3984 213.312 39.4062 211.531 37.4219C209.797 35.5156 208.93 33.2812 208.93 30.7188C208.93 28.5312 209.594 26.3359 210.922 24.1328C212.906 20.7891 215.609 18.5312 219.031 17.3594C220.125 16.9688 221.281 16.7734 222.5 16.7734C223.719 16.7734 224.875 17.0469 225.969 17.5938C227.078 18.125 228.031 18.8438 228.828 19.75ZM217.742 19.9141C216.18 19.9141 215.039 20.6719 214.32 22.1875C213.758 23.375 213.477 24.7188 213.477 26.2188C213.477 27.7188 213.672 29.1172 214.062 30.4141C214.469 31.6953 215.062 32.8438 215.844 33.8594C217.578 36.1406 219.812 37.2812 222.547 37.2812C224.141 37.2812 225.297 36.4844 226.016 34.8906C226.531 33.7031 226.789 32.3359 226.789 30.7891C226.789 27.7734 225.945 25.2109 224.258 23.1016C222.586 20.9766 220.414 19.9141 217.742 19.9141ZM247.812 20.0781C247.922 20 248.094 19.8672 248.328 19.6797C248.578 19.4766 248.852 19.2578 249.148 19.0234C249.461 18.7891 249.781 18.5469 250.109 18.2969C250.438 18.0312 250.75 17.7969 251.047 17.5938C251.719 17.1094 252.125 16.8672 252.266 16.8672C252.422 16.8672 252.609 17.0391 252.828 17.3828C253.047 17.7266 253.258 18.125 253.461 18.5781C253.68 19.0156 253.867 19.4453 254.023 19.8672C254.195 20.2734 254.523 21.0859 255.008 22.3047C256.258 25.4297 257.516 29.5391 258.781 34.6328C260.594 31.3047 261.703 28.9453 262.109 27.5547C262.531 26.1641 262.742 25.1953 262.742 24.6484C262.742 24.0859 262.703 23.5781 262.625 23.125C262.562 22.6562 262.453 22.2188 262.297 21.8125C261.891 20.8281 261.297 20.3359 260.516 20.3359C260.141 20.3359 259.773 20.4375 259.414 20.6406C259.82 20.4375 260.25 20.1406 260.703 19.75C261.156 19.3594 261.617 18.9766 262.086 18.6016C263.258 17.6641 264.125 17.1953 264.688 17.1953C265.25 17.1953 265.68 17.3047 265.977 17.5234C266.289 17.7422 266.547 18.0156 266.75 18.3438C267.125 18.9844 267.312 19.8281 267.312 20.875C267.312 21.9219 267.102 23.1172 266.68 24.4609C266.273 25.7891 265.75 27.1094 265.109 28.4219C264.328 30.0625 263.383 31.7734 262.273 33.5547C261.164 35.3203 260.5 36.3906 260.281 36.7656C260.062 37.1406 259.867 37.4375 259.695 37.6562C259.539 37.8594 259.359 38.0469 259.156 38.2188C258.953 38.375 258.703 38.5547 258.406 38.7578C258.109 38.9609 257.789 39.1797 257.445 39.4141C257.102 39.6484 256.766 39.8672 256.438 40.0703C256.125 40.2891 255.836 40.4844 255.57 40.6562C255.32 40.8281 255.133 40.9531 255.008 41.0312C253.742 35.6875 252.602 31.5391 251.586 28.5859C250.945 30.1953 250.219 31.8125 249.406 33.4375C248.594 35.0469 248.086 36.0859 247.883 36.5547C247.68 37.0078 247.5 37.3516 247.344 37.5859C247.188 37.8203 247.008 38.0156 246.805 38.1719C246.602 38.3281 246.352 38.5156 246.055 38.7344C245.758 38.9375 245.43 39.1641 245.07 39.4141C244.727 39.6484 244.391 39.875 244.062 40.0938C243.391 40.5156 242.914 40.8281 242.633 41.0312C242.523 40.5625 242.383 39.9141 242.211 39.0859C242.039 38.2422 241.828 37.2891 241.578 36.2266C241.328 35.1641 241.047 34.0312 240.734 32.8281C240.438 31.625 240.102 30.4375 239.727 29.2656C239.352 28.0781 238.953 26.9453 238.531 25.8672C238.109 24.7734 237.656 23.8125 237.172 22.9844C236.141 21.1719 235.109 20.2656 234.078 20.2656C233.594 20.2656 233.117 20.4219 232.648 20.7344C234.086 19.2344 235.625 18.1328 237.266 17.4297C237.859 17.1797 238.344 17.0547 238.719 17.0547C239.266 17.0547 239.727 17.2188 240.102 17.5469C240.492 17.8594 240.898 18.3906 241.32 19.1406C241.742 19.8906 242.148 20.7656 242.539 21.7656C242.945 22.7656 243.336 23.8359 243.711 24.9766C244.086 26.1016 244.43 27.2031 244.742 28.2812C245.18 29.7969 245.648 31.5234 246.148 33.4609C246.445 32.7578 246.766 32 247.109 31.1875C247.453 30.375 247.773 29.5469 248.07 28.7031C248.758 26.7188 249.102 25.0156 249.102 23.5938C249.102 22.1719 248.672 21 247.812 20.0781ZM287.984 35.6641C285.844 38.0547 283.188 39.5469 280.016 40.1406C279.281 40.2656 278.375 40.3281 277.297 40.3281C276.219 40.3281 275.203 40.0312 274.25 39.4375C273.297 38.8281 272.516 38.0469 271.906 37.0938C270.75 35.25 270.172 33 270.172 30.3438C270.172 28.5938 270.844 26.6562 272.188 24.5312C273.5 22.4375 275.102 20.6875 276.992 19.2812C279.023 17.7812 280.945 17.0312 282.758 17.0312C283.695 17.0312 284.484 17.375 285.125 18.0625C285.719 18.7344 286.016 19.5 286.016 20.3594C286.016 21.2188 285.828 22.0156 285.453 22.75C285.078 23.4688 284.586 24.1719 283.977 24.8594C283.383 25.5469 282.695 26.2109 281.914 26.8516C281.148 27.4766 280.359 28.0625 279.547 28.6094C278.406 29.3906 276.969 30.2734 275.234 31.2578C275.734 33.1484 276.617 34.6094 277.883 35.6406C279.148 36.6562 280.781 37.1641 282.781 37.1641C284.469 37.1641 286.203 36.6641 287.984 35.6641ZM280.906 26.2656C281.328 25.5938 281.539 24.9375 281.539 24.2969C281.539 23.6562 281.469 23.1172 281.328 22.6797C281.188 22.2266 280.984 21.8281 280.719 21.4844C280.109 20.7031 279.32 20.3125 278.352 20.3125C275.977 20.3125 274.789 22.7344 274.789 27.5781C274.789 28.4375 274.859 29.2891 275 30.1328C277.75 29.3672 279.719 28.0781 280.906 26.2656ZM309.617 21.2266C313.086 18.5703 315.727 17.2422 317.539 17.2422C318.758 17.2422 319.719 17.75 320.422 18.7656C321.031 19.625 321.336 20.6953 321.336 21.9766V33.1797C321.336 34.6016 321.422 35.5234 321.594 35.9453C321.969 36.7734 322.766 37.1875 323.984 37.1875C324.609 37.1875 325.203 37.0703 325.766 36.8359C324.375 38.0391 323.414 38.8125 322.883 39.1562C321.664 39.9531 320.594 40.3516 319.672 40.3516C318.766 40.3516 318.117 40.1953 317.727 39.8828C317.352 39.5547 317.086 39.1406 316.93 38.6406C316.758 38.0938 316.672 36.9688 316.672 35.2656V26.4297C316.672 24.7109 316.508 23.4844 316.18 22.75C315.867 22 315.477 21.4375 315.008 21.0625C314.539 20.6875 313.984 20.5 313.344 20.5C312.719 20.5 312.234 20.5938 311.891 20.7812C311.547 20.9688 311.25 21.2109 311 21.5078C310.062 22.6172 309.594 24.4141 309.594 26.8984V33.5547C309.594 34.7109 309.719 35.5078 309.969 35.9453C310.438 36.7734 311.219 37.1875 312.312 37.1875C312.938 37.1875 313.531 37.0703 314.094 36.8359C312.703 38.0391 311.742 38.8125 311.211 39.1562C309.992 39.9531 308.922 40.3516 308 40.3516C307.094 40.3516 306.445 40.1953 306.055 39.8828C305.68 39.5547 305.414 39.1406 305.258 38.6406C305.086 38.0938 305 36.9688 305 35.2656V26.4297C305 24.7109 304.836 23.4844 304.508 22.75C304.195 22 303.805 21.4375 303.336 21.0625C302.867 20.6875 302.305 20.5 301.648 20.5C300.992 20.5 300.484 20.625 300.125 20.875C299.766 21.125 299.453 21.4609 299.188 21.8828C298.938 22.2891 298.734 22.7578 298.578 23.2891C298.422 23.8047 298.297 24.3359 298.203 24.8828C298.062 25.8203 297.992 26.7969 297.992 27.8125V35.0547C297.992 36.0547 298.297 36.7344 298.906 37.0938C299.125 37.2344 299.398 37.3047 299.727 37.3047C300.055 37.3047 300.398 37.2266 300.758 37.0703C298.961 38.6172 297.695 39.5703 296.961 39.9297C296.227 40.2891 295.641 40.4688 295.203 40.4688C294.016 40.4688 293.422 39.7812 293.422 38.4062V24.9062C293.422 24.3594 293.43 23.8125 293.445 23.2656C293.461 22.7188 293.406 22.2188 293.281 21.7656C292.984 20.7812 292.133 20.2891 290.727 20.2891C290.055 20.2891 289.383 20.4141 288.711 20.6641C289.117 20.5234 289.641 20.1562 290.281 19.5625C291.531 18.4375 292.398 17.7812 292.883 17.5938C293.883 17.2344 294.719 17.0547 295.391 17.0547C296.078 17.0547 296.594 17.1797 296.938 17.4297C297.297 17.6797 297.555 18 297.711 18.3906C297.898 18.875 297.992 19.8125 297.992 21.2031C300.023 19.5938 301.992 18.4141 303.898 17.6641C304.617 17.3828 305.266 17.2422 305.844 17.2422C306.422 17.2422 306.93 17.3516 307.367 17.5703C307.82 17.7891 308.203 18.0859 308.516 18.4609C309.156 19.2266 309.523 20.1484 309.617 21.2266Z" fill="#D4BF79"/>
</g>
<defs>
<filter id="filter0_di_3_18003" x="0.578125" y="0.226562" width="329.188" height="62.0234" filterUnits="userSpaceOnUse" color-interpolation-filters="sRGB">
<feFlood flood-opacity="0" result="BackgroundImageFix"/>
<feColorMatrix in="SourceAlpha" type="matrix" values="0 0 0 0 0 0 0 0 0 0 0 0 0 0 0 0 0 0 127 0" result="hardAlpha"/>
<feOffset dy="4"/>
<feGaussianBlur stdDeviation="2"/>
<feComposite in2="hardAlpha" operator="out"/>
<feColorMatrix type="matrix" values="0 0 0 0 0 0 0 0 0 0 0 0 0 0 0 0 0 0 0.25 0"/>
<feBlend mode="normal" in2="BackgroundImageFix" result="effect1_dropShadow_3_18003"/>
<feBlend mode="normal" in="SourceGraphic" in2="effect1_dropShadow_3_18003" result="shape"/>
<feColorMatrix in="SourceAlpha" type="matrix" values="0 0 0 0 0 0 0 0 0 0 0 0 0 0 0 0 0 0 127 0" result="hardAlpha"/>
<feOffset dy="4"/>
<feGaussianBlur stdDeviation="2"/>
<feComposite in2="hardAlpha" operator="arithmetic" k2="-1" k3="1"/>
<feColorMatrix type="matrix" values="0 0 0 0 0.691667 0 0 0 0 0.56996 0 0 0 0 0.164271 0 0 0 1 0"/>
<feBlend mode="normal" in2="shape" result="effect2_innerShadow_3_18003"/>
</filter>
</defs>
</svg>
