<svg width="455" height="109" viewBox="0 0 455 109" fill="none" xmlns="http://www.w3.org/2000/svg">
<g filter="url(#filter0_di_3_18001)">
<path d="M4.85742 12.29C11.8822 6.53483 15.987 3.65723 17.1719 3.65723H88.7734C88.2233 3.74186 86.9326 4.67285 84.9014 6.4502C82.8701 8.22754 81.4525 9.43359 80.6484 10.0684C78.7018 11.5495 77.3053 12.29 76.459 12.29H50.4336V70.3711C50.4336 75.4915 49.5661 79.7233 47.8311 83.0664C47.0693 84.5052 46.223 85.6055 45.292 86.3672H66.2393C65.6468 86.4518 64.335 87.3828 62.3037 89.1602C60.2725 90.9375 58.8548 92.1436 58.0508 92.7783C56.1042 94.2594 54.7077 95 53.8613 95H31.7715C34.3105 92.7148 35.8975 90.7894 36.5322 89.2236C37.5479 86.7269 38.0557 83.5954 38.0557 79.8291V12.29H4.85742ZM88.9004 86.4307C89.1966 86.3883 90.8893 86.3672 93.9785 86.3672C99.2682 86.3672 103.161 85.9652 105.658 85.1611C108.197 84.3571 110.017 83.6165 111.117 82.9395C109.551 84.1243 108.113 85.2246 106.801 86.2402C103.965 88.4408 101.68 90.0277 99.9453 91.001C98.2526 91.9743 96.5599 92.736 94.8672 93.2861C93.1745 93.7939 91.4395 94.1748 89.6621 94.4287C87.0384 94.8096 83.4626 95 78.9346 95H76.459C76.5013 94.9577 76.5436 94.9154 76.5859 94.873C76.5859 94.8307 76.8822 94.4922 77.4746 93.8574C78.0247 93.2227 78.8499 92.3128 79.9502 91.1279C81.0505 89.9007 82.5104 88.0811 84.3301 85.6689C86.1497 83.2568 88.1175 80.1465 90.2334 76.3379C92.3916 72.5293 94.3805 68.6572 96.2002 64.7217C98.0622 60.7438 99.8395 56.7236 101.532 52.6611C103.225 48.5986 104.96 44.5361 106.737 40.4736C108.557 36.3688 110.398 32.2428 112.26 28.0957C114.122 23.9062 115.518 20.6266 116.449 18.2568C117.423 15.887 117.973 14.4059 118.1 13.8135C118.269 13.221 118.523 12.7132 118.861 12.29H114.037C106.166 12.29 100.051 13.1787 95.6924 14.9561C101.532 9.87793 106.42 6.68294 110.355 5.37109C113.952 4.22852 119.792 3.65723 127.875 3.65723H131.239C133.059 9.70866 134.879 15.8447 136.698 22.0654C138.56 28.2861 140.422 34.5068 142.284 40.7275C146.347 54.2692 149.394 64.0869 151.425 70.1807C153.498 76.2744 154.704 79.9137 155.043 81.0986C155.424 82.2412 155.889 83.278 156.439 84.209C157.667 86.2402 159.634 87.2559 162.343 87.2559C163.824 87.2559 165.368 86.9173 166.977 86.2402C168.627 85.5632 169.896 84.9495 170.785 84.3994C169.262 85.542 167.908 86.5788 166.723 87.5098C163.676 89.8372 161.729 91.276 160.883 91.8262C160.036 92.334 159.19 92.8418 158.344 93.3496C157.497 93.8574 156.609 94.3229 155.678 94.7461C149.753 97.3698 145.754 96.3753 143.681 91.7627C142.2 88.5042 140.422 83.2992 138.349 76.1475C136.275 68.9535 134.434 62.8385 132.826 57.8027C129.271 60.3418 121.527 61.5267 109.594 61.3574C108.07 61.3574 106.758 61.3574 105.658 61.3574C100.876 70.9212 96.2214 78.221 91.6934 83.2568C91.3125 83.68 90.9316 84.1243 90.5508 84.5898C89.4505 85.8594 88.9004 86.473 88.9004 86.4307ZM110.609 52.5342L123.178 52.7881C125.801 52.7881 128.467 52.7035 131.176 52.5342C129.229 46.3558 126.33 36.8978 122.479 24.1602C118.29 33.7663 114.037 43.2878 109.721 52.7246C110.229 52.5977 110.525 52.5342 110.609 52.5342ZM212.934 3.65723C232.484 3.65723 242.26 10.026 242.26 22.7637C242.26 28.9421 239.636 34.6973 234.389 40.0293C230.242 44.2188 224.867 47.9004 218.266 51.0742C221.566 52.3861 224.825 54.8193 228.041 58.374C228.93 59.3896 229.861 60.4264 230.834 61.4844L247.338 79.7656C250.215 83.0241 252.289 84.9707 253.559 85.6055C254.87 86.2402 255.95 86.5576 256.796 86.5576C258.743 86.5576 260.774 85.8805 262.89 84.5264C257.812 91.7204 251.506 95.3174 243.974 95.3174C242.069 95.3174 240.186 94.2383 238.324 92.0801C237.859 91.5299 237.372 90.9798 236.864 90.4297L219.916 71.7041C217.504 69.0381 215.451 66.8164 213.759 65.0391C212.066 63.2194 210.395 61.7594 208.744 60.6592C205.613 58.5856 201.339 57.5488 195.922 57.5488V70.3711C195.922 74.5182 195.753 77.29 195.414 78.6865C194.864 80.7601 193.531 83.3203 191.415 86.3672H211.728C211.177 86.4518 210.289 87.0231 209.062 88.0811C207.877 89.139 206.861 90.0488 206.015 90.8105C205.168 91.5299 204.343 92.207 203.539 92.8418C201.635 94.2806 200.259 95 199.413 95H178.529C181.915 91.276 183.607 86.2191 183.607 79.8291V12.29H169.896L172.309 10.3223C177.725 5.87891 181.026 3.65723 182.211 3.65723H212.934ZM229.945 31.9678C229.945 28.3285 229.162 25.2604 227.597 22.7637C226.031 20.2669 224 18.2357 221.503 16.6699C216.848 13.75 210.945 12.29 203.793 12.29H195.922V48.6621H205.824C213.399 48.6621 218.985 47.71 222.582 45.8057C227.491 43.2243 229.945 38.6117 229.945 31.9678ZM364.96 42.0605C364.96 46.4193 364.219 50.9896 362.738 55.7715C361.257 60.5111 359.205 65.0602 356.581 69.4189C354 73.7354 350.91 77.7767 347.313 81.543C343.716 85.3092 339.802 88.5677 335.57 91.3184C326.514 97.2005 317.268 100.142 307.831 100.142C294.501 100.142 283.943 96.2695 276.156 88.5254C268.327 80.7812 264.413 70.2653 264.413 56.9775C264.413 46.9482 267.185 37.5326 272.729 28.7305C277.976 20.3092 285.001 13.5807 293.803 8.54492C302.732 3.42448 312.232 0.864258 322.304 0.864258C333.899 0.864258 343.865 4.69401 352.201 12.3535C360.707 20.1823 364.96 30.0846 364.96 42.0605ZM352.582 52.2168C352.582 46.3346 351.545 40.7275 349.472 35.3955C347.44 30.0212 344.542 25.4297 340.775 21.6211C332.904 13.7077 322.431 9.75098 309.354 9.75098C292.3 9.75098 281.996 16.9238 278.441 31.2695C277.341 35.7975 276.791 41.1719 276.791 47.3926C276.791 53.6133 277.743 59.5166 279.647 65.1025C281.594 70.6462 284.429 75.4069 288.153 79.3848C295.94 87.6367 306.688 91.7627 320.399 91.7627C331.36 91.7627 339.633 87.9541 345.219 80.3369C350.128 73.6507 352.582 64.2773 352.582 52.2168ZM366.166 12.29C373.191 6.53483 377.296 3.65723 378.48 3.65723H450.082C449.532 3.74186 448.241 4.67285 446.21 6.4502C444.179 8.22754 442.761 9.43359 441.957 10.0684C440.01 11.5495 438.614 12.29 437.768 12.29H411.742V70.3711C411.742 75.4915 410.875 79.7233 409.14 83.0664C408.378 84.5052 407.532 85.6055 406.601 86.3672H427.548C426.955 86.4518 425.644 87.3828 423.612 89.1602C421.581 90.9375 420.163 92.1436 419.359 92.7783C417.413 94.2594 416.016 95 415.17 95H393.08C395.619 92.7148 397.206 90.7894 397.841 89.2236C398.856 86.7269 399.364 83.5954 399.364 79.8291V12.29H366.166Z" fill="#D4BF79"/>
</g>
<defs>
<filter id="filter0_di_3_18001" x="0.857422" y="0.864258" width="453.225" height="107.277" filterUnits="userSpaceOnUse" color-interpolation-filters="sRGB">
<feFlood flood-opacity="0" result="BackgroundImageFix"/>
<feColorMatrix in="SourceAlpha" type="matrix" values="0 0 0 0 0 0 0 0 0 0 0 0 0 0 0 0 0 0 127 0" result="hardAlpha"/>
<feOffset dy="4"/>
<feGaussianBlur stdDeviation="2"/>
<feComposite in2="hardAlpha" operator="out"/>
<feColorMatrix type="matrix" values="0 0 0 0 0 0 0 0 0 0 0 0 0 0 0 0 0 0 0.25 0"/>
<feBlend mode="normal" in2="BackgroundImageFix" result="effect1_dropShadow_3_18001"/>
<feBlend mode="normal" in="SourceGraphic" in2="effect1_dropShadow_3_18001" result="shape"/>
<feColorMatrix in="SourceAlpha" type="matrix" values="0 0 0 0 0 0 0 0 0 0 0 0 0 0 0 0 0 0 127 0" result="hardAlpha"/>
<feOffset dx="-2" dy="4"/>
<feGaussianBlur stdDeviation="6.45"/>
<feComposite in2="hardAlpha" operator="arithmetic" k2="-1" k3="1"/>
<feColorMatrix type="matrix" values="0 0 0 0 0.691667 0 0 0 0 0.56996 0 0 0 0 0.164271 0 0 0 1 0"/>
<feBlend mode="normal" in2="shape" result="effect2_innerShadow_3_18001"/>
</filter>
</defs>
</svg>
