<svg width="462" height="470" viewBox="0 0 462 470" fill="none" xmlns="http://www.w3.org/2000/svg">
<g clip-path="url(#clip0_36_33)">
<path d="M361.86 333.64H120.16C120.16 333.64 116.78 270.1 124.58 250.91C131.11 234.91 170.2 198.83 170.2 198.83H311.82C311.82 198.83 350.91 234.83 357.43 250.91C365.24 270.06 361.86 333.64 361.86 333.64Z" fill="url(#paint0_linear_36_33)"/>
<path d="M362.02 307.38H119.98C111.801 307.38 105.17 314.011 105.17 322.19V345C105.17 353.179 111.801 359.81 119.98 359.81H362.02C370.199 359.81 376.83 353.179 376.83 345V322.19C376.83 314.011 370.199 307.38 362.02 307.38Z" fill="url(#paint1_linear_36_33)"/>
<path d="M282.12 144.14H266.48C263.73 144.14 261.5 146.37 261.5 149.12V184.61C261.5 187.36 263.73 189.59 266.48 189.59H282.12C284.87 189.59 287.1 187.36 287.1 184.61V149.12C287.1 146.37 284.87 144.14 282.12 144.14Z" fill="url(#paint2_linear_36_33)"/>
<path d="M216.6 143.38H200.96C198.21 143.38 195.98 145.61 195.98 148.36V183.85C195.98 186.6 198.21 188.83 200.96 188.83H216.6C219.35 188.83 221.58 186.6 221.58 183.85V148.36C221.58 145.61 219.35 143.38 216.6 143.38Z" fill="url(#paint3_linear_36_33)"/>
<path d="M241.03 299.77C277.729 299.77 307.48 270.019 307.48 233.32C307.48 196.621 277.729 166.87 241.03 166.87C204.331 166.87 174.58 196.621 174.58 233.32C174.58 270.019 204.331 299.77 241.03 299.77Z" fill="url(#paint4_linear_36_33)"/>
<path d="M241.03 200.19C246.707 200.19 251.31 195.587 251.31 189.91C251.31 184.232 246.707 179.63 241.03 179.63C235.353 179.63 230.75 184.232 230.75 189.91C230.75 195.587 235.353 200.19 241.03 200.19Z" fill="url(#paint5_linear_36_33)"/>
<path d="M241 285.67C246.677 285.67 251.28 281.067 251.28 275.39C251.28 269.712 246.677 265.11 241 265.11C235.322 265.11 230.72 269.712 230.72 275.39C230.72 281.067 235.322 285.67 241 285.67Z" fill="url(#paint6_linear_36_33)"/>
<path d="M211.3 272.51C216.978 272.51 221.58 267.907 221.58 262.23C221.58 256.552 216.978 251.95 211.3 251.95C205.623 251.95 201.02 256.552 201.02 262.23C201.02 267.907 205.623 272.51 211.3 272.51Z" fill="url(#paint7_linear_36_33)"/>
<path d="M199.05 243.41C204.728 243.41 209.33 238.808 209.33 233.13C209.33 227.453 204.728 222.85 199.05 222.85C193.373 222.85 188.77 227.453 188.77 233.13C188.77 238.808 193.373 243.41 199.05 243.41Z" fill="url(#paint8_linear_36_33)"/>
<path d="M211.3 212.51C216.978 212.51 221.58 207.907 221.58 202.23C221.58 196.552 216.978 191.95 211.3 191.95C205.623 191.95 201.02 196.552 201.02 202.23C201.02 207.907 205.623 212.51 211.3 212.51Z" fill="url(#paint9_linear_36_33)"/>
<path d="M272.07 212.51C277.748 212.51 282.35 207.907 282.35 202.23C282.35 196.552 277.748 191.95 272.07 191.95C266.393 191.95 261.79 196.552 261.79 202.23C261.79 207.907 266.393 212.51 272.07 212.51Z" fill="url(#paint10_linear_36_33)"/>
<path d="M284.58 243.41C290.257 243.41 294.86 238.808 294.86 233.13C294.86 227.453 290.257 222.85 284.58 222.85C278.902 222.85 274.3 227.453 274.3 233.13C274.3 238.808 278.902 243.41 284.58 243.41Z" fill="url(#paint11_linear_36_33)"/>
<path d="M282.35 262.24C282.35 264.272 281.748 266.257 280.62 267.947C279.492 269.637 277.889 270.954 276.013 271.734C274.137 272.513 272.072 272.719 270.079 272.325C268.086 271.932 266.254 270.957 264.815 269.523C263.376 268.089 262.394 266.262 261.992 264.27C261.591 262.279 261.789 260.213 262.561 258.334C263.333 256.455 264.644 254.846 266.33 253.712C268.015 252.578 269.999 251.968 272.03 251.96C273.384 251.953 274.725 252.215 275.978 252.728C277.23 253.242 278.369 253.999 279.328 254.954C280.287 255.909 281.048 257.045 281.566 258.295C282.085 259.546 282.351 260.886 282.35 262.24Z" fill="url(#paint12_linear_36_33)"/>
<path d="M380.66 193.34C342.66 209.88 315.34 182.86 312.12 171.59C309.03 160.87 318.03 155.64 293.29 141.47C281.05 134.47 254.29 132.28 241.03 132.28C227.77 132.28 201.03 134.47 188.77 141.47C164.03 155.64 173.03 160.87 169.94 171.64C166.73 182.91 139.44 209.93 101.4 193.39C89.4 188.19 94.97 137.96 105.35 130.03C164.84 84.58 241.05 87.13 241.05 87.13C241.05 87.13 317.22 84.58 376.71 130.03C387.09 137.91 392.64 188.14 380.66 193.34Z" fill="url(#paint13_linear_36_33)"/>
<path d="M147.32 47.08L150.1 38.73L153.28 47.87L162.8 50.42L152.59 54.36L149.37 63.6L145.96 53.97L138.11 49.67L147.32 47.08Z" fill="url(#paint14_linear_36_33)" stroke="url(#paint15_linear_36_33)" stroke-width="4.3" stroke-miterlimit="10"/>
<path d="M356.16 38.7301L357.09 29.6001L362.65 37.7301L373.35 37.4001L363.49 44.3701L362.3 54.5101L356.38 45.9701L347.02 44.0601L356.16 38.7301Z" fill="url(#paint16_linear_36_33)" stroke="url(#paint17_linear_36_33)" stroke-width="4.56" stroke-miterlimit="10"/>
<path d="M15.44 160.97L16.37 151.84L21.94 159.97L32.64 159.64L22.78 166.61L21.58 176.76L15.66 168.21L6.29999 166.3L15.44 160.97Z" fill="url(#paint18_linear_36_33)" stroke="url(#paint19_linear_36_33)" stroke-width="4.56" stroke-miterlimit="10"/>
<path d="M84.91 240.82L85.73 233.64L90.19 239.97L98.88 239.64L90.83 245.19L89.79 253.17L85.04 246.5L77.46 245.08L84.91 240.82Z" fill="url(#paint20_linear_36_33)" stroke="url(#paint21_linear_36_33)" stroke-width="3.64" stroke-miterlimit="10"/>
<path d="M60.26 375.69L61.19 366.56L66.76 374.69L77.46 374.36L67.6 381.33L66.41 391.48L60.48 382.93L51.12 381.02L60.26 375.69Z" fill="url(#paint22_linear_36_33)" stroke="url(#paint23_linear_36_33)" stroke-width="4.56" stroke-miterlimit="10"/>
<path d="M402.49 361.51L409.12 355.76L407.74 365.76L415.52 373.7L403.98 371.1L396.5 377.36L397.9 366.8L392.53 358.3L402.49 361.51Z" fill="url(#paint24_linear_36_33)" stroke="url(#paint25_linear_36_33)" stroke-width="4.56" stroke-miterlimit="10"/>
<path d="M355.48 442.9L356.44 431.84L363.01 441.78L375.43 441.56L364.08 449.86L362.83 462.15L355.83 451.69L344.94 449.22L355.48 442.9Z" fill="url(#paint26_linear_36_33)" stroke="url(#paint27_linear_36_33)" stroke-width="5.41" stroke-miterlimit="10"/>
<path d="M441.12 187.43L441.9 180.03L446.42 186.6L455.15 186.32L447.1 191.98L446.11 200.19L441.29 193.29L433.65 191.76L441.12 187.43Z" fill="url(#paint28_linear_36_33)" stroke="url(#paint29_linear_36_33)" stroke-width="3.7" stroke-miterlimit="10"/>
<path d="M65.28 9.86011L65.82 4.11011L69.28 9.26011L75.86 9.11011L69.82 13.4601L69.13 19.8601L65.45 14.4401L59.68 13.1801L65.28 9.86011Z" fill="url(#paint30_linear_36_33)" stroke="url(#paint31_linear_36_33)" stroke-width="2.84" stroke-miterlimit="10"/>
</g>
<defs>
<linearGradient id="paint0_linear_36_33" x1="241.009" y1="198.83" x2="241.009" y2="333.64" gradientUnits="userSpaceOnUse">
<stop offset="0.18" stop-color="#D4BF79"/>
<stop offset="0.845" stop-color="#B0912A"/>
</linearGradient>
<linearGradient id="paint1_linear_36_33" x1="241" y1="307.38" x2="241" y2="359.81" gradientUnits="userSpaceOnUse">
<stop offset="0.18" stop-color="#D4BF79"/>
<stop offset="0.845" stop-color="#B0912A"/>
</linearGradient>
<linearGradient id="paint2_linear_36_33" x1="274.3" y1="144.14" x2="274.3" y2="189.59" gradientUnits="userSpaceOnUse">
<stop offset="0.18" stop-color="#D4BF79"/>
<stop offset="0.845" stop-color="#B0912A"/>
</linearGradient>
<linearGradient id="paint3_linear_36_33" x1="208.78" y1="143.38" x2="208.78" y2="188.83" gradientUnits="userSpaceOnUse">
<stop offset="0.18" stop-color="#D4BF79"/>
<stop offset="0.845" stop-color="#B0912A"/>
</linearGradient>
<linearGradient id="paint4_linear_36_33" x1="241.03" y1="166.87" x2="241.03" y2="299.77" gradientUnits="userSpaceOnUse">
<stop offset="0.18" stop-color="#D4BF79"/>
<stop offset="0.845" stop-color="#B0912A"/>
</linearGradient>
<linearGradient id="paint5_linear_36_33" x1="241.03" y1="179.63" x2="241.03" y2="200.19" gradientUnits="userSpaceOnUse">
<stop offset="0.18" stop-color="#D4BF79"/>
<stop offset="0.845" stop-color="#B0912A"/>
</linearGradient>
<linearGradient id="paint6_linear_36_33" x1="241" y1="265.11" x2="241" y2="285.67" gradientUnits="userSpaceOnUse">
<stop offset="0.18" stop-color="#D4BF79"/>
<stop offset="0.845" stop-color="#B0912A"/>
</linearGradient>
<linearGradient id="paint7_linear_36_33" x1="211.3" y1="251.95" x2="211.3" y2="272.51" gradientUnits="userSpaceOnUse">
<stop offset="0.18" stop-color="#D4BF79"/>
<stop offset="0.845" stop-color="#B0912A"/>
</linearGradient>
<linearGradient id="paint8_linear_36_33" x1="199.05" y1="222.85" x2="199.05" y2="243.41" gradientUnits="userSpaceOnUse">
<stop offset="0.18" stop-color="#D4BF79"/>
<stop offset="0.845" stop-color="#B0912A"/>
</linearGradient>
<linearGradient id="paint9_linear_36_33" x1="211.3" y1="191.95" x2="211.3" y2="212.51" gradientUnits="userSpaceOnUse">
<stop offset="0.18" stop-color="#D4BF79"/>
<stop offset="0.845" stop-color="#B0912A"/>
</linearGradient>
<linearGradient id="paint10_linear_36_33" x1="272.07" y1="191.95" x2="272.07" y2="212.51" gradientUnits="userSpaceOnUse">
<stop offset="0.18" stop-color="#D4BF79"/>
<stop offset="0.845" stop-color="#B0912A"/>
</linearGradient>
<linearGradient id="paint11_linear_36_33" x1="284.58" y1="222.85" x2="284.58" y2="243.41" gradientUnits="userSpaceOnUse">
<stop offset="0.18" stop-color="#D4BF79"/>
<stop offset="0.845" stop-color="#B0912A"/>
</linearGradient>
<linearGradient id="paint12_linear_36_33" x1="272.07" y1="251.96" x2="272.07" y2="272.52" gradientUnits="userSpaceOnUse">
<stop offset="0.18" stop-color="#D4BF79"/>
<stop offset="0.845" stop-color="#B0912A"/>
</linearGradient>
<linearGradient id="paint13_linear_36_33" x1="241.026" y1="87.104" x2="241.026" y2="198.614" gradientUnits="userSpaceOnUse">
<stop offset="0.18" stop-color="#D4BF79"/>
<stop offset="0.845" stop-color="#B0912A"/>
</linearGradient>
<linearGradient id="paint14_linear_36_33" x1="150.455" y1="38.73" x2="150.455" y2="63.6" gradientUnits="userSpaceOnUse">
<stop offset="0.18" stop-color="#D4BF79"/>
<stop offset="0.845" stop-color="#B0912A"/>
</linearGradient>
<linearGradient id="paint15_linear_36_33" x1="150.455" y1="38.73" x2="150.455" y2="63.6" gradientUnits="userSpaceOnUse">
<stop offset="0.18" stop-color="#D4BF79"/>
<stop offset="0.845" stop-color="#B0912A"/>
</linearGradient>
<linearGradient id="paint16_linear_36_33" x1="360.185" y1="29.6001" x2="360.185" y2="54.5101" gradientUnits="userSpaceOnUse">
<stop offset="0.18" stop-color="#D4BF79"/>
<stop offset="0.845" stop-color="#B0912A"/>
</linearGradient>
<linearGradient id="paint17_linear_36_33" x1="360.185" y1="29.6001" x2="360.185" y2="54.5101" gradientUnits="userSpaceOnUse">
<stop offset="0.18" stop-color="#D4BF79"/>
<stop offset="0.845" stop-color="#B0912A"/>
</linearGradient>
<linearGradient id="paint18_linear_36_33" x1="19.47" y1="151.84" x2="19.47" y2="176.76" gradientUnits="userSpaceOnUse">
<stop offset="0.18" stop-color="#D4BF79"/>
<stop offset="0.845" stop-color="#B0912A"/>
</linearGradient>
<linearGradient id="paint19_linear_36_33" x1="19.47" y1="151.84" x2="19.47" y2="176.76" gradientUnits="userSpaceOnUse">
<stop offset="0.18" stop-color="#D4BF79"/>
<stop offset="0.845" stop-color="#B0912A"/>
</linearGradient>
<linearGradient id="paint20_linear_36_33" x1="88.17" y1="233.64" x2="88.17" y2="253.17" gradientUnits="userSpaceOnUse">
<stop offset="0.18" stop-color="#D4BF79"/>
<stop offset="0.845" stop-color="#B0912A"/>
</linearGradient>
<linearGradient id="paint21_linear_36_33" x1="88.17" y1="233.64" x2="88.17" y2="253.17" gradientUnits="userSpaceOnUse">
<stop offset="0.18" stop-color="#D4BF79"/>
<stop offset="0.845" stop-color="#B0912A"/>
</linearGradient>
<linearGradient id="paint22_linear_36_33" x1="64.29" y1="366.56" x2="64.29" y2="391.48" gradientUnits="userSpaceOnUse">
<stop offset="0.18" stop-color="#D4BF79"/>
<stop offset="0.845" stop-color="#B0912A"/>
</linearGradient>
<linearGradient id="paint23_linear_36_33" x1="64.29" y1="366.56" x2="64.29" y2="391.48" gradientUnits="userSpaceOnUse">
<stop offset="0.18" stop-color="#D4BF79"/>
<stop offset="0.845" stop-color="#B0912A"/>
</linearGradient>
<linearGradient id="paint24_linear_36_33" x1="404.025" y1="355.76" x2="404.025" y2="377.36" gradientUnits="userSpaceOnUse">
<stop offset="0.18" stop-color="#D4BF79"/>
<stop offset="0.845" stop-color="#B0912A"/>
</linearGradient>
<linearGradient id="paint25_linear_36_33" x1="404.025" y1="355.76" x2="404.025" y2="377.36" gradientUnits="userSpaceOnUse">
<stop offset="0.18" stop-color="#D4BF79"/>
<stop offset="0.845" stop-color="#B0912A"/>
</linearGradient>
<linearGradient id="paint26_linear_36_33" x1="360.185" y1="431.84" x2="360.185" y2="462.15" gradientUnits="userSpaceOnUse">
<stop offset="0.18" stop-color="#D4BF79"/>
<stop offset="0.845" stop-color="#B0912A"/>
</linearGradient>
<linearGradient id="paint27_linear_36_33" x1="360.185" y1="431.84" x2="360.185" y2="462.15" gradientUnits="userSpaceOnUse">
<stop offset="0.18" stop-color="#D4BF79"/>
<stop offset="0.845" stop-color="#B0912A"/>
</linearGradient>
<linearGradient id="paint28_linear_36_33" x1="444.4" y1="180.03" x2="444.4" y2="200.19" gradientUnits="userSpaceOnUse">
<stop offset="0.18" stop-color="#D4BF79"/>
<stop offset="0.845" stop-color="#B0912A"/>
</linearGradient>
<linearGradient id="paint29_linear_36_33" x1="444.4" y1="180.03" x2="444.4" y2="200.19" gradientUnits="userSpaceOnUse">
<stop offset="0.18" stop-color="#D4BF79"/>
<stop offset="0.845" stop-color="#B0912A"/>
</linearGradient>
<linearGradient id="paint30_linear_36_33" x1="67.77" y1="4.11011" x2="67.77" y2="19.8601" gradientUnits="userSpaceOnUse">
<stop offset="0.18" stop-color="#D4BF79"/>
<stop offset="0.845" stop-color="#B0912A"/>
</linearGradient>
<linearGradient id="paint31_linear_36_33" x1="67.77" y1="4.11011" x2="67.77" y2="19.8601" gradientUnits="userSpaceOnUse">
<stop offset="0.18" stop-color="#D4BF79"/>
<stop offset="0.845" stop-color="#B0912A"/>
</linearGradient>
<clipPath id="clip0_36_33">
<rect width="461.29" height="469.9" fill="white"/>
</clipPath>
</defs>
</svg>
