<svg width="401" height="177" viewBox="0 0 401 177" fill="none" xmlns="http://www.w3.org/2000/svg">
<path d="M0.875 47.5625C7.79167 41.8958 11.8333 39.0625 13 39.0625H83.5C82.9583 39.1458 81.6875 40.0625 79.6875 41.8125C77.6875 43.5625 76.2917 44.75 75.5 45.375C73.5833 46.8333 72.2083 47.5625 71.375 47.5625H45.75V104.75C45.75 109.792 44.8958 113.958 43.1875 117.25C42.4375 118.667 41.6042 119.75 40.6875 120.5H61.3125C60.7292 120.583 59.4375 121.5 57.4375 123.25C55.4375 125 54.0417 126.188 53.25 126.812C51.3333 128.271 49.9583 129 49.125 129H27.375C29.875 126.75 31.4375 124.854 32.0625 123.312C33.0625 120.854 33.5625 117.771 33.5625 114.062V47.5625H0.875ZM120.75 117.438C115.042 123.812 107.958 127.792 99.5 129.375C97.5417 129.708 95.125 129.875 92.25 129.875C89.375 129.875 86.6667 129.083 84.125 127.5C81.5833 125.875 79.5 123.792 77.875 121.25C74.7917 116.333 73.25 110.333 73.25 103.25C73.25 98.5833 75.0417 93.4167 78.625 87.75C82.125 82.1667 86.3958 77.5 91.4375 73.75C96.8542 69.75 101.979 67.75 106.812 67.75C109.312 67.75 111.417 68.6667 113.125 70.5C114.708 72.2917 115.5 74.3333 115.5 76.625C115.5 78.9167 115 81.0417 114 83C113 84.9167 111.688 86.7917 110.062 88.625C108.479 90.4583 106.646 92.2292 104.562 93.9375C102.521 95.6042 100.417 97.1667 98.25 98.625C95.2083 100.708 91.375 103.062 86.75 105.688C88.0833 110.729 90.4375 114.625 93.8125 117.375C97.1875 120.083 101.542 121.438 106.875 121.438C111.375 121.438 116 120.104 120.75 117.438ZM101.875 92.375C103 90.5833 103.562 88.8333 103.562 87.125C103.562 85.4167 103.375 83.9792 103 82.8125C102.625 81.6042 102.083 80.5417 101.375 79.625C99.75 77.5417 97.6458 76.5 95.0625 76.5C88.7292 76.5 85.5625 82.9583 85.5625 95.875C85.5625 98.1667 85.75 100.438 86.125 102.688C93.4583 100.646 98.7083 97.2083 101.875 92.375ZM183.875 68.25C178.833 75.6667 172.729 79.375 165.562 79.375C164.396 79.375 162.896 78.9167 161.062 78C157.562 76.25 155.188 75.375 153.938 75.375C152.729 75.375 151.75 75.7708 151 76.5625C150.25 77.3542 149.625 78.4583 149.125 79.875C148 82.9583 147.438 86.9583 147.438 91.875V115.812C147.438 118.479 148.25 120.292 149.875 121.25C150.458 121.625 151.188 121.812 152.062 121.812C152.938 121.812 153.854 121.604 154.812 121.188C153.979 121.938 153.167 122.833 152.375 123.875C151.583 124.875 150.688 125.854 149.688 126.812C147.312 129.104 144.5 130.25 141.25 130.25C139.583 130.25 138.167 129.729 137 128.688C135.833 127.604 135.25 126.292 135.25 124.75V88.75C135.25 87.2917 135.271 85.8333 135.312 84.375C135.354 82.9167 135.208 81.5833 134.875 80.375C134.083 77.75 131.812 76.4375 128.062 76.4375C126.271 76.4375 124.479 76.7708 122.688 77.4375C123.771 77.0625 125.167 76.0833 126.875 74.5C130.208 71.5 132.521 69.75 133.812 69.25C136.479 68.2917 138.625 67.8125 140.25 67.8125C141.917 67.8125 143.188 68.0625 144.062 68.5625C144.979 69.0208 145.688 69.6667 146.188 70.5C147.021 71.875 147.438 74 147.438 76.875C148.646 75.9583 149.958 74.9375 151.375 73.8125C152.833 72.6458 154.333 71.5417 155.875 70.5C159.583 68.0417 162.812 66.8125 165.562 66.8125C167.188 66.8125 168.896 67.2708 170.688 68.1875C172.479 69.1042 173.812 69.7708 174.688 70.1875C175.562 70.6042 176.375 70.8125 177.125 70.8125C178.792 70.8125 181.042 69.9583 183.875 68.25ZM224.062 110.5L223.938 114.875C223.938 118.125 224.854 120.188 226.688 121.062C227.396 121.396 228.208 121.562 229.125 121.562C230.583 121.562 232.083 121.229 233.625 120.562C232.042 121.229 230.667 122.104 229.5 123.188C228.333 124.271 227.146 125.333 225.938 126.375C222.938 128.875 219.917 130.125 216.875 130.125C213.833 130.125 212.208 128.375 212 124.875C211.917 123.958 211.875 123.042 211.875 122.125C204.375 127.333 197.5 129.938 191.25 129.938C185.958 129.938 182.292 128.333 180.25 125.125C179.5 123.958 179.125 122.354 179.125 120.312C179.125 118.271 179.75 116.229 181 114.188C182.25 112.104 183.833 110.208 185.75 108.5C189.167 105.333 193.292 102.729 198.125 100.688C201.708 99.1458 206.312 98.2708 211.938 98.0625V95.3125C211.938 88.6875 211.333 84.2083 210.125 81.875C208.917 79.5417 207.354 77.8333 205.438 76.75C203.521 75.625 201.271 75.0625 198.688 75.0625C194.312 75.0625 190.458 75.9167 187.125 77.625C191.708 73.8333 195.062 71.3333 197.188 70.125C201.562 67.6667 205.521 66.4375 209.062 66.4375C212.646 66.4375 215.333 66.9583 217.125 68C218.917 69.0417 220.333 70.4167 221.375 72.125C223.167 75.125 224.062 79.4375 224.062 85.0625V110.5ZM194.688 119.5C195.688 120.208 196.854 120.729 198.188 121.062C199.521 121.396 201.5 121.562 204.125 121.562C206.75 121.562 209.354 120.938 211.938 119.688V106.562H201.812C198.188 106.562 195.021 106.812 192.312 107.312C191.771 109.104 191.5 110.812 191.5 112.438C191.5 114.062 191.771 115.458 192.312 116.625C192.896 117.792 193.688 118.75 194.688 119.5ZM234.875 77.3125C242.208 70.7708 248.146 67.5 252.688 67.5C256.479 67.5 258.604 69.5833 259.062 73.75C259.188 74.9167 259.25 76.0833 259.25 77.25C263.458 74.1667 266.458 72.1458 268.25 71.1875C272.125 69.0625 275.854 68 279.438 68C283.062 68 286.271 68.7083 289.062 70.125C291.896 71.5 294.208 73.3958 296 75.8125C299.375 80.4375 301.062 86.6042 301.062 94.3125C301.062 103.438 296.958 111.708 288.75 119.125C283.833 123.583 278.25 126.75 272 128.625C268.917 129.5 266.271 129.938 264.062 129.938C261.896 129.938 260.292 129.833 259.25 129.625V147.5C259.25 152.083 257.792 155.75 254.875 158.5H270.125C269.667 158.542 268.917 159 267.875 159.875C266.833 160.792 265.708 161.771 264.5 162.812C261.167 165.604 259 167 258 167H242.75C245.625 163.208 247.062 158.708 247.062 153.5V84.1875C247.062 81.4375 246.729 79.6042 246.062 78.6875C244.854 76.9792 243.146 76.125 240.938 76.125C238.729 76.125 236.708 76.5208 234.875 77.3125ZM259.25 112.5C262.792 118.583 268.208 121.625 275.5 121.625C283.167 121.625 287.5 117.833 288.5 110.25C288.833 107.958 289 105.292 289 102.25C289 99.1667 288.625 96.0417 287.875 92.875C287.125 89.6667 285.917 86.8542 284.25 84.4375C280.542 79.1458 275 76.5 267.625 76.5C264.333 76.5 261.542 78.3958 259.25 82.1875V112.5ZM329.125 22.9375L329.5 30.0625V33.3125C329.5 35.3125 329.25 36.5417 328.75 37C328.25 37.4167 327.708 37.8333 327.125 38.25C324.792 39.9167 321.417 42.1667 317 45C317.208 40.8333 317.312 38.6875 317.312 38.5625C317.312 38.3958 317.208 36.0208 317 31.4375L329.125 22.9375ZM342.188 121.312C340.938 122.312 339.708 123.333 338.5 124.375C337.333 125.417 336.104 126.375 334.812 127.25C331.812 129.208 328.938 130.188 326.188 130.188C323.604 130.188 321.792 129.792 320.75 129C318.625 127.417 317.562 124.5 317.562 120.25V90.625C317.562 86.125 316.75 83.2083 315.125 81.875C314.375 81.25 313.562 80.9375 312.688 80.9375C311.812 80.9375 311.062 81 310.438 81.125C309.854 81.2083 309.25 81.3125 308.625 81.4375C308 81.5625 307.354 81.6875 306.688 81.8125C308.771 80.1875 310.708 78.7292 312.5 77.4375C314.333 76.1458 315.896 75.0625 317.188 74.1875C318.479 73.3125 320.271 72.0833 322.562 70.5C324.854 68.875 327.229 67.4167 329.688 66.125V110.25C329.688 114.5 329.958 117.188 330.5 118.312C331.667 120.604 334.25 121.75 338.25 121.75C339.333 121.75 340.646 121.604 342.188 121.312ZM389.062 110.5L388.938 114.875C388.938 118.125 389.854 120.188 391.688 121.062C392.396 121.396 393.208 121.562 394.125 121.562C395.583 121.562 397.083 121.229 398.625 120.562C397.042 121.229 395.667 122.104 394.5 123.188C393.333 124.271 392.146 125.333 390.938 126.375C387.938 128.875 384.917 130.125 381.875 130.125C378.833 130.125 377.208 128.375 377 124.875C376.917 123.958 376.875 123.042 376.875 122.125C369.375 127.333 362.5 129.938 356.25 129.938C350.958 129.938 347.292 128.333 345.25 125.125C344.5 123.958 344.125 122.354 344.125 120.312C344.125 118.271 344.75 116.229 346 114.188C347.25 112.104 348.833 110.208 350.75 108.5C354.167 105.333 358.292 102.729 363.125 100.688C366.708 99.1458 371.312 98.2708 376.938 98.0625V95.3125C376.938 88.6875 376.333 84.2083 375.125 81.875C373.917 79.5417 372.354 77.8333 370.438 76.75C368.521 75.625 366.271 75.0625 363.688 75.0625C359.312 75.0625 355.458 75.9167 352.125 77.625C356.708 73.8333 360.062 71.3333 362.188 70.125C366.562 67.6667 370.521 66.4375 374.062 66.4375C377.646 66.4375 380.333 66.9583 382.125 68C383.917 69.0417 385.333 70.4167 386.375 72.125C388.167 75.125 389.062 79.4375 389.062 85.0625V110.5ZM359.688 119.5C360.688 120.208 361.854 120.729 363.188 121.062C364.521 121.396 366.5 121.562 369.125 121.562C371.75 121.562 374.354 120.938 376.938 119.688V106.562H366.812C363.188 106.562 360.021 106.812 357.312 107.312C356.771 109.104 356.5 110.812 356.5 112.438C356.5 114.062 356.771 115.458 357.312 116.625C357.896 117.792 358.688 118.75 359.688 119.5Z" fill="url(#paint0_linear_29_2)"/>
<rect x="275" y="142" width="114" height="6" rx="3" fill="url(#paint1_linear_29_2)"/>
<rect x="275" y="142" width="114" height="6" rx="3" stroke="black"/>
<defs>
<linearGradient id="paint0_linear_29_2" x1="201.5" y1="0" x2="201.5" y2="177" gradientUnits="userSpaceOnUse">
<stop stop-color="#D4BF79"/>
<stop offset="1" stop-color="#B0912A"/>
</linearGradient>
<linearGradient id="paint1_linear_29_2" x1="275" y1="145" x2="389" y2="145" gradientUnits="userSpaceOnUse">
<stop stop-color="#D4BF79"/>
<stop offset="1" stop-color="#B0912A"/>
</linearGradient>
</defs>
</svg>
